<svg width="16" height="16" viewBox="0 0 16 16" fill="none" xmlns="http://www.w3.org/2000/svg">
<g clip-path="url(#clip0_1_2253)">
<path d="M8 16C6.41775 16 4.87104 15.5308 3.55544 14.6518C2.23985 13.7727 1.21447 12.5233 0.608967 11.0615C0.00346629 9.59966 -0.15496 7.99113 0.153721 6.43928C0.462403 4.88743 1.22433 3.46197 2.34315 2.34315C3.46197 1.22433 4.88743 0.462403 6.43928 0.153721C7.99113 -0.15496 9.59966 0.00346629 11.0615 0.608967C12.5233 1.21447 13.7727 2.23985 14.6518 3.55544C15.5308 4.87104 16 6.41775 16 8C15.9977 10.121 15.1541 12.1545 13.6543 13.6543C12.1545 15.1541 10.121 15.9977 8 16ZM8 1.33334C6.68146 1.33334 5.39253 1.72433 4.2962 2.45687C3.19987 3.18942 2.34539 4.23061 1.84081 5.44878C1.33622 6.66695 1.2042 8.0074 1.46144 9.30061C1.71867 10.5938 2.35361 11.7817 3.28596 12.714C4.21831 13.6464 5.4062 14.2813 6.6994 14.5386C7.99261 14.7958 9.33305 14.6638 10.5512 14.1592C11.7694 13.6546 12.8106 12.8001 13.5431 11.7038C14.2757 10.6075 14.6667 9.31855 14.6667 8C14.6647 6.23249 13.9617 4.53792 12.7119 3.2881C11.4621 2.03828 9.76752 1.33528 8 1.33334ZM8 13.3333C6.94517 13.3333 5.91402 13.0205 5.03696 12.4345C4.1599 11.8485 3.47631 11.0155 3.07265 10.041C2.66898 9.06644 2.56336 7.99409 2.76915 6.95952C2.97494 5.92496 3.48289 4.97465 4.22877 4.22877C4.97465 3.48289 5.92496 2.97494 6.95952 2.76915C7.99409 2.56336 9.06644 2.66898 10.041 3.07265C11.0155 3.47631 11.8485 4.1599 12.4345 5.03696C13.0205 5.91402 13.3333 6.94517 13.3333 8C13.3317 9.414 12.7693 10.7696 11.7695 11.7695C10.7696 12.7693 9.414 13.3317 8 13.3333ZM8 4C7.20888 4 6.43552 4.2346 5.77772 4.67413C5.11993 5.11365 4.60724 5.73837 4.30449 6.46927C4.00173 7.20017 3.92252 8.00444 4.07686 8.78036C4.2312 9.55629 4.61217 10.269 5.17158 10.8284C5.73099 11.3878 6.44372 11.7688 7.21964 11.9231C7.99557 12.0775 8.79983 11.9983 9.53074 11.6955C10.2616 11.3928 10.8864 10.8801 11.3259 10.2223C11.7654 9.56449 12 8.79113 12 8C11.9989 6.93946 11.5772 5.92266 10.8273 5.17275C10.0773 4.42283 9.06054 4.00106 8 4ZM7.90467 10.3433L9.90467 7.01C9.96544 6.90886 9.99827 6.79339 9.99982 6.67541C10.0014 6.55742 9.97157 6.44113 9.91347 6.33843C9.85537 6.23573 9.77106 6.15028 9.66914 6.09082C9.56721 6.03137 9.45133 6.00003 9.33334 6H6.66667C6.48986 6 6.32029 6.07024 6.19527 6.19527C6.07024 6.32029 6 6.48986 6 6.66667C6 6.84348 6.07024 7.01305 6.19527 7.13807C6.32029 7.2631 6.48986 7.33334 6.66667 7.33334H8.156L6.762 9.65667C6.71502 9.73174 6.68347 9.81542 6.66919 9.90283C6.65491 9.99023 6.65819 10.0796 6.67884 10.1657C6.69948 10.2518 6.73707 10.333 6.78943 10.4044C6.84178 10.4758 6.90784 10.5361 6.98375 10.5817C7.05966 10.6274 7.14389 10.6574 7.23154 10.6701C7.31919 10.6828 7.40848 10.6779 7.49422 10.6557C7.57995 10.6335 7.66041 10.5945 7.73088 10.5408C7.80135 10.4872 7.86043 10.4201 7.90467 10.3433Z" fill="#0C0C0C"/>
</g>
<defs>
<clipPath id="clip0_1_2253">
<rect width="16" height="16" fill="white"/>
</clipPath>
</defs>
</svg>
