<svg width="32" height="32" viewBox="0 0 32 32" fill="none" xmlns="http://www.w3.org/2000/svg">
<path d="M2.66669 8L11.884 13.2226C15.2822 15.148 16.7179 15.148 20.116 13.2226L29.3334 8" stroke="#464646" stroke-width="1.5" stroke-linejoin="round"/>
<path d="M2.68771 17.9674C2.77487 22.0549 2.81846 24.0985 4.32663 25.6125C5.83479 27.1264 7.93379 27.179 12.1318 27.2845C14.7191 27.3496 17.281 27.3496 19.8683 27.2845C24.0663 27.179 26.1652 27.1264 27.6735 25.6125C29.1816 24.0985 29.2252 22.0549 29.3123 17.9674C29.3404 16.6532 29.3404 15.3468 29.3123 14.0325C29.2252 9.94511 29.1816 7.90141 27.6735 6.38751C26.1652 4.8736 24.0663 4.82087 19.8683 4.71539C17.281 4.65037 14.7191 4.65037 12.1318 4.71537C7.93379 4.82084 5.83479 4.87357 4.32662 6.38749C2.81845 7.9014 2.77487 9.94509 2.6877 14.0325C2.65967 15.3468 2.65969 16.6532 2.68771 17.9674Z" stroke="#464646" stroke-width="1.5" stroke-linejoin="round"/>
</svg>
