<svg width="30" height="26" viewBox="0 0 30 26" fill="none" xmlns="http://www.w3.org/2000/svg">
<path d="M1.68771 14.9674C1.77487 19.0549 1.81846 21.0985 3.32663 22.6125C4.83479 24.1264 6.93379 24.179 11.1318 24.2845C13.7191 24.3496 16.281 24.3496 18.8683 24.2845C23.0663 24.179 25.1652 24.1264 26.6735 22.6125C28.1816 21.0985 28.2252 19.0549 28.3123 14.9674C28.3404 13.6532 28.3404 12.3468 28.3123 11.0325C28.2252 6.94511 28.1816 4.90141 26.6735 3.38751C25.1652 1.8736 23.0663 1.82087 18.8683 1.71539C16.281 1.65037 13.7191 1.65037 11.1318 1.71537C6.93379 1.82084 4.83479 1.87357 3.32662 3.38749C1.81845 4.9014 1.77487 6.94509 1.6877 11.0325C1.65967 12.3468 1.65969 13.6532 1.68771 14.9674Z" stroke="#464646" stroke-width="1.5" stroke-linejoin="round"/>
</svg>
