<svg width="20" height="21" viewBox="0 0 20 21" fill="none" xmlns="http://www.w3.org/2000/svg">
<path d="M14.0419 0.12793H5.95811C2.67279 0.12793 0 2.80072 0 6.08604V14.1698C0 17.4551 2.67279 20.1279 5.95811 20.1279H14.0419C17.3272 20.1279 20 17.4551 20 14.1698V6.08604C20 2.80072 17.3272 0.12793 14.0419 0.12793ZM17.988 14.1698C17.988 16.3492 16.2213 18.1159 14.0419 18.1159H5.95811C3.77875 18.1159 2.012 16.3492 2.012 14.1698V6.08604C2.012 3.90664 3.77875 2.13993 5.95811 2.13993H14.0419C16.2213 2.13993 17.988 3.90664 17.988 6.08604V14.1698Z" fill="white"/>
<path d="M10 4.95532C7.14777 4.95532 4.8273 7.2758 4.8273 10.128C4.8273 12.9802 7.14777 15.3007 10 15.3007C12.8523 15.3007 15.1727 12.9802 15.1727 10.128C15.1727 7.27576 12.8523 4.95532 10 4.95532ZM10 13.2887C8.25438 13.2887 6.8393 11.8737 6.8393 10.128C6.8393 8.38241 8.25442 6.96732 10 6.96732C11.7456 6.96732 13.1607 8.38241 13.1607 10.128C13.1607 11.8736 11.7456 13.2887 10 13.2887Z" fill="white"/>
<path d="M15.1827 6.23361C15.8673 6.23361 16.4222 5.67868 16.4222 4.99413C16.4222 4.30958 15.8673 3.75464 15.1827 3.75464C14.4982 3.75464 13.9432 4.30958 13.9432 4.99413C13.9432 5.67868 14.4982 6.23361 15.1827 6.23361Z" fill="white"/>
</svg>
