<svg width="30" height="41" viewBox="0 0 30 41" fill="none" xmlns="http://www.w3.org/2000/svg">
<path d="M29.9962 5.69598C29.9962 2.61856 27.5601 0.12793 24.5643 0.12793H20.4554C17.4405 0.12793 15.0045 2.6316 15.0045 5.71554C15.0045 7.93885 13.2426 9.74488 11.0737 9.74488H5.43824C2.42972 9.7514 0 12.242 0 15.3195C0 18.3969 2.42972 20.8875 5.43188 20.8875H11.0673C13.2362 20.8875 14.9981 22.6935 14.9981 24.9168V24.9625C14.9981 27.1858 13.2362 28.9918 11.0673 28.9918H5.43188C2.42972 28.9918 0 31.4825 0 34.5599C0 37.6373 2.42972 40.1279 5.43188 40.1279H9.54077C12.5557 40.1279 14.9917 37.6243 14.9917 34.5403C14.9917 32.317 16.7536 30.511 18.9225 30.511H24.5579C27.5601 30.511 29.9898 28.0204 29.9898 24.9429C29.9898 21.8655 27.5601 19.3749 24.5579 19.3749H18.9225C16.7536 19.3749 14.9917 17.5688 14.9917 15.3455V15.2999C14.9917 13.0766 16.7536 11.2706 18.9225 11.2706H24.5579C27.5601 11.2706 29.9898 8.77993 29.9898 5.7025L29.9962 5.69598Z" fill="#B4FF5C"/>
</svg>
