<svg width="200" height="41" viewBox="0 0 200 41" fill="none" xmlns="http://www.w3.org/2000/svg">
<g clip-path="url(#clip0_1_2426)">
<path d="M45.4904 32.9362C43.0543 32.9362 40.9999 32.382 39.3207 31.2671C37.6415 30.1522 36.4521 28.6135 35.7397 26.651L39.9186 24.1473C40.8854 26.7422 42.7872 28.0332 45.624 28.0332C46.9469 28.0332 47.9392 27.7919 48.6007 27.3095C49.2622 26.827 49.5929 26.1685 49.5929 25.347C49.5929 24.4537 49.2049 23.7626 48.4226 23.2736C47.6402 22.7651 46.2473 22.2174 44.2437 21.6371C42.0684 20.959 40.3575 20.1701 39.1044 19.2769C37.5461 18.0902 36.7638 16.3494 36.7638 14.0479C36.7638 11.7463 37.5525 9.89463 39.1362 8.56456C40.72 7.18233 42.6472 6.49121 44.9116 6.49121C46.8961 6.49121 48.6579 6.98673 50.1908 7.97776C51.7237 8.9688 52.9195 10.3771 53.7718 12.1897L49.6629 14.6216C48.6706 12.4439 47.0869 11.3551 44.9116 11.3551C43.9193 11.3551 43.1243 11.5898 42.5391 12.0658C41.9476 12.5352 41.655 13.1481 41.655 13.8979C41.655 14.6999 41.973 15.3518 42.6091 15.8604C43.3151 16.369 44.5681 16.9036 46.3681 17.4578L48.0664 18.0381C48.3717 18.1359 48.906 18.338 49.6629 18.6575C50.3689 18.9248 50.8905 19.1791 51.2212 19.4203C52.3788 20.144 53.1612 20.9003 53.5619 21.6697C54.1788 22.6868 54.4842 23.8865 54.4842 25.2687C54.4842 27.6159 53.6446 29.4806 51.9654 30.8628C50.2862 32.2451 48.1236 32.9362 45.4777 32.9362H45.4904Z" fill="white"/>
<path d="M66.919 13.7546C69.3042 13.7546 71.3395 14.687 73.0123 16.5517C74.7106 18.4164 75.5629 20.6788 75.5629 23.3455C75.5629 26.0122 74.7106 28.3333 73.0123 30.1784C71.3586 32.0171 69.3296 32.9364 66.919 32.9364C64.5083 32.9364 62.5238 32.0497 61.1754 30.2828V39.6911H56.6022V14.2632H61.1754V16.4083C62.5238 14.6414 64.4384 13.7546 66.919 13.7546ZM62.562 27.0489C63.4843 27.9942 64.6546 28.4637 66.073 28.4637C67.4914 28.4637 68.6617 27.9942 69.584 27.0489C70.5254 26.0774 71.0024 24.8451 71.0024 23.3455C71.0024 21.8459 70.5317 20.6202 69.584 19.6748C68.6617 18.7033 67.4914 18.2208 66.073 18.2208C64.6546 18.2208 63.4843 18.7033 62.562 19.6748C61.6397 20.6202 61.1818 21.8394 61.1818 23.3455C61.1818 24.8516 61.6397 26.0839 62.562 27.0489Z" fill="white"/>
<path d="M79.7863 12.0789C79.0294 12.0789 78.3742 11.7921 77.8209 11.2248C77.2675 10.6576 76.9876 9.98603 76.9876 9.21015C76.9876 8.43428 77.2675 7.7562 77.8209 7.17592C78.3742 6.59564 79.0294 6.30225 79.7863 6.30225C80.5432 6.30225 81.2365 6.59564 81.7898 7.17592C82.3432 7.7562 82.6231 8.43428 82.6231 9.21015C82.6231 9.98603 82.3432 10.6576 81.7898 11.2248C81.2365 11.7921 80.5686 12.0789 79.7863 12.0789ZM82.0888 32.4212H77.5156V14.2566H82.0888V32.4212Z" fill="white"/>
<path d="M94.9434 13.7546C96.9024 13.7546 98.4989 14.4197 99.7265 15.7497C101.005 17.1059 101.641 18.9445 101.641 21.2722V32.4278H97.0678V21.859C97.0678 20.6723 96.7561 19.753 96.1264 19.101C95.4968 18.449 94.6444 18.123 93.5568 18.123C92.3547 18.123 91.4006 18.5077 90.7009 19.2705C90.0013 20.0334 89.6578 21.1548 89.6578 22.6283V32.4343H85.0846V14.2697H89.6578V16.3039C90.7455 14.6088 92.5073 13.7612 94.937 13.7612L94.9434 13.7546Z" fill="white"/>
<path d="M121.492 25.2688H108.129C108.72 27.5443 110.387 28.6853 113.128 28.6853C114.877 28.6853 116.2 28.0789 117.097 26.8662L120.786 29.0439C119.037 31.6388 116.461 32.9298 113.058 32.9298C110.126 32.9298 107.779 32.0235 106.004 30.2044C104.23 28.3854 103.346 26.0969 103.346 23.3389C103.346 20.581 104.217 18.3511 105.966 16.506C107.69 14.6674 109.935 13.748 112.702 13.748C115.469 13.748 117.46 14.6674 119.12 16.506C120.818 18.3446 121.67 20.6266 121.67 23.3389C121.67 23.8475 121.613 24.4864 121.492 25.2623V25.2688ZM108.059 21.6372H117.097C116.836 20.4506 116.308 19.5443 115.52 18.9119C114.725 18.2794 113.79 17.9665 112.702 17.9665C111.474 17.9665 110.457 18.2859 109.655 18.9314C108.854 19.5704 108.32 20.4767 108.059 21.6372Z" fill="white"/>
<path d="M29.9962 5.69598C29.9962 2.61856 27.5601 0.12793 24.5643 0.12793H20.4554C17.4405 0.12793 15.0045 2.6316 15.0045 5.71554C15.0045 7.93885 13.2426 9.74488 11.0737 9.74488H5.43824C2.42972 9.7514 0 12.242 0 15.3195C0 18.3969 2.42972 20.8875 5.43188 20.8875H11.0673C13.2362 20.8875 14.9981 22.6935 14.9981 24.9168V24.9625C14.9981 27.1858 13.2362 28.9918 11.0673 28.9918H5.43188C2.42972 28.9918 0 31.4825 0 34.5599C0 37.6373 2.42972 40.1279 5.43188 40.1279H9.54077C12.5557 40.1279 14.9917 37.6243 14.9917 34.5403C14.9917 32.317 16.7536 30.511 18.9225 30.511H24.5579C27.5601 30.511 29.9898 28.0204 29.9898 24.9429C29.9898 21.8655 27.5601 19.3749 24.5579 19.3749H18.9225C16.7536 19.3749 14.9917 17.5688 14.9917 15.3455V15.2999C14.9917 13.0766 16.7536 11.2706 18.9225 11.2706H24.5579C27.5601 11.2706 29.9898 8.77993 29.9898 5.7025L29.9962 5.69598Z" fill="#B4FF5C"/>
</g>
<defs>
<clipPath id="clip0_1_2426">
<rect width="200" height="40" fill="white" transform="translate(0 0.12793)"/>
</clipPath>
</defs>
</svg>
