<svg width="165" height="40" viewBox="0 0 165 40" fill="none" xmlns="http://www.w3.org/2000/svg">
<g clip-path="url(#clip0_1_1170)">
<path d="M48.2464 28.2462H59.9069V24.734H52.3908V11.5048H48.2464V28.2462Z" fill="#0C0C0C"/>
<path d="M66.8154 25.9048C65.1529 25.9048 64.2866 24.4531 64.2866 22.2755C64.2866 20.098 65.1529 18.6229 66.8154 18.6229C68.4778 18.6229 69.3676 20.098 69.3676 22.2755C69.3676 24.4531 68.4778 25.9048 66.8154 25.9048ZM66.8388 28.6209C70.7022 28.6209 73.231 25.8814 73.231 22.2755C73.231 18.6697 70.7022 15.9302 66.8388 15.9302C62.9988 15.9302 60.4232 18.6697 60.4232 22.2755C60.4232 25.8814 62.9988 28.6209 66.8388 28.6209Z" fill="#0C0C0C"/>
<path d="M79.9182 32.3906C81.6977 32.3906 83.2665 31.9926 84.3201 31.056C85.2801 30.1897 85.9123 28.8784 85.9123 27.0755V16.258H82.2597V17.5458H82.2128C81.5104 16.5389 80.4333 15.9067 78.8411 15.9067C75.8675 15.9067 73.807 18.3887 73.807 21.9009C73.807 25.577 76.3123 27.5906 79.005 27.5906C80.4567 27.5906 81.3699 27.0053 82.0723 26.2092H82.166V27.4033C82.166 28.855 81.487 29.698 79.8714 29.698C78.607 29.698 77.9748 29.1594 77.764 28.5272H74.0645C74.4392 31.0326 76.6167 32.3906 79.9182 32.3906ZM79.8948 24.7575C78.4665 24.7575 77.5299 23.5867 77.5299 21.7838C77.5299 19.9575 78.4665 18.7867 79.8948 18.7867C81.487 18.7867 82.3299 20.1448 82.3299 21.7604C82.3299 23.4463 81.5572 24.7575 79.8948 24.7575Z" fill="#0C0C0C"/>
<path d="M93.423 25.9048C91.7605 25.9048 90.8942 24.4531 90.8942 22.2755C90.8942 20.098 91.7605 18.6229 93.423 18.6229C95.0854 18.6229 95.9752 20.098 95.9752 22.2755C95.9752 24.4531 95.0854 25.9048 93.423 25.9048ZM93.4464 28.6209C97.3098 28.6209 99.8381 25.8814 99.8381 22.2755C99.8381 18.6697 97.3098 15.9302 93.4464 15.9302C89.6064 15.9302 87.0308 18.6697 87.0308 22.2755C87.0308 25.8814 89.6064 28.6209 93.4464 28.6209Z" fill="#0C0C0C"/>
<path d="M100.953 28.2462H104.77V16.2579H100.953V28.2462ZM100.953 14.5955H104.77V11.5048H100.953V14.5955Z" fill="#0C0C0C"/>
<path d="M106.425 32.2033H110.242V27.0053H110.289C111.038 28.0121 112.139 28.6209 113.684 28.6209C116.822 28.6209 118.905 26.1389 118.905 22.2521C118.905 18.6463 116.962 15.9067 113.778 15.9067C112.139 15.9067 110.968 16.6326 110.148 17.7097H110.078V16.258H106.425V32.2033ZM112.701 25.6706C111.062 25.6706 110.125 24.336 110.125 22.3926C110.125 20.4492 110.968 18.9741 112.63 18.9741C114.269 18.9741 115.042 20.3321 115.042 22.3926C115.042 24.4297 114.152 25.6706 112.701 25.6706Z" fill="#0C0C0C"/>
<path d="M125.119 28.6209C128.257 28.6209 130.575 27.2628 130.575 24.6404C130.575 21.5731 128.093 21.0345 125.985 20.6833C124.463 20.4023 123.105 20.2853 123.105 19.4423C123.105 18.6931 123.831 18.3419 124.768 18.3419C125.821 18.3419 126.547 18.6697 126.688 19.7467H130.2C130.013 17.3819 128.186 15.9067 124.791 15.9067C121.958 15.9067 119.617 17.218 119.617 19.7467C119.617 22.5565 121.841 23.1184 123.925 23.4697C125.517 23.7506 126.969 23.8677 126.969 24.9448C126.969 25.7175 126.243 26.1389 125.096 26.1389C123.831 26.1389 123.035 25.5536 122.895 24.3594H119.289C119.406 27.0053 121.607 28.6209 125.119 28.6209Z" fill="#0C0C0C"/>
<path d="M135.759 28.5974C137.421 28.5974 138.475 27.9418 139.341 26.7711H139.412V28.2462H143.064V16.2579H139.248V22.9545C139.248 24.3828 138.452 25.3662 137.141 25.3662C135.923 25.3662 135.338 24.6404 135.338 23.3292V16.2579H131.544V24.1253C131.544 26.7945 132.996 28.5974 135.759 28.5974Z" fill="#0C0C0C"/>
<path d="M144.725 28.2463H148.542V21.5263C148.542 20.098 149.244 19.0911 150.438 19.0911C151.585 19.0911 152.124 19.8404 152.124 21.1282V28.2463H155.941V21.5263C155.941 20.098 156.62 19.0911 157.837 19.0911C158.984 19.0911 159.523 19.8404 159.523 21.1282V28.2463H163.34V20.4492C163.34 17.7565 161.982 15.9067 159.265 15.9067C157.72 15.9067 156.432 16.5623 155.496 18.0141H155.449C154.84 16.7263 153.646 15.9067 152.077 15.9067C150.344 15.9067 149.197 16.7263 148.448 17.9672H148.378V16.258H144.725V28.2463Z" fill="#0C0C0C"/>
<path d="M24.9609 1.92867L21.1239 0.900513L17.8903 12.9684L14.971 2.07343L11.1338 3.10158L14.288 14.8728L6.43172 7.01659L3.62275 9.82556L12.24 18.4429L1.50858 15.5674L0.480423 19.4045L12.2059 22.5463C12.0717 21.9673 12.0006 21.364 12.0006 20.7441C12.0006 16.3562 15.5577 12.7991 19.9456 12.7991C24.3335 12.7991 27.8906 16.3562 27.8906 20.7441C27.8906 21.36 27.8204 21.9596 27.6879 22.5352L38.3441 25.3905L39.3722 21.5535L27.6001 18.3991L38.3323 15.5234L37.3041 11.6863L25.5325 14.8405L33.3887 6.98434L30.5798 4.17537L22.082 12.6732L24.9609 1.92867Z" fill="#0C0C0C"/>
<path d="M27.6774 22.58C27.3484 23.9708 26.6539 25.2202 25.7009 26.2213L33.4209 33.9414L36.2299 31.1324L27.6774 22.58Z" fill="#0C0C0C"/>
<path d="M25.6229 26.302C24.6584 27.2871 23.4396 28.0222 22.0727 28.401L24.8819 38.8849L28.719 37.8567L25.6229 26.302Z" fill="#0C0C0C"/>
<path d="M21.9294 28.4394C21.2953 28.6024 20.6306 28.6891 19.9456 28.6891C19.2117 28.6891 18.5011 28.5896 17.8265 28.4033L15.0148 38.8968L18.8518 39.9249L21.9294 28.4394Z" fill="#0C0C0C"/>
<path d="M17.6909 28.3645C16.3449 27.9669 15.1477 27.2224 14.203 26.2345L6.46396 33.9735L9.27292 36.7825L17.6909 28.3645Z" fill="#0C0C0C"/>
<path d="M14.1384 26.1661C13.2098 25.172 12.5334 23.9392 12.2115 22.5698L1.52037 25.4345L2.54852 29.2716L14.1384 26.1661Z" fill="#0C0C0C"/>
</g>
<defs>
<clipPath id="clip0_1_1170">
<rect width="163.902" height="40" fill="white" transform="translate(0.170776)"/>
</clipPath>
</defs>
</svg>
