<svg width="158" height="40" viewBox="0 0 158 40" fill="none" xmlns="http://www.w3.org/2000/svg">
<path d="M18.1764 7.82349V2.82349H2.41174V37.1764H18.1764V32.1764C14.947 32.1764 11.8499 30.8935 9.56638 28.61C7.28285 26.3264 5.99998 23.2294 5.99998 20C5.99998 16.7706 7.28285 13.6734 9.56638 11.3899C11.8499 9.10637 14.947 7.82349 18.1764 7.82349Z" fill="#0C0C0C"/>
<path d="M18.1765 7.82349V32.1764C21.4059 32.1764 24.503 30.8935 26.7866 28.61C29.0701 26.3264 30.3529 23.2294 30.3529 20C30.3529 16.7706 29.0701 13.6734 26.7866 11.3899C24.503 9.10637 21.4059 7.82349 18.1765 7.82349Z" fill="#0C0C0C"/>
<path d="M39.2 10.8823H42.7294V27.8823H39.2V10.8823Z" fill="#0C0C0C"/>
<path d="M44.7059 22.0588C44.7059 20.8357 45.0691 19.6402 45.7493 18.6237C46.4295 17.6073 47.3962 16.8156 48.5269 16.3491C49.6576 15.8828 50.9013 15.7626 52.1003 16.0037C53.2994 16.2449 54.3999 16.8367 55.2622 17.704C56.1246 18.5714 56.7101 19.6751 56.9445 20.8756C57.1787 22.0761 57.0514 23.319 56.5785 24.447C56.1055 25.5749 55.3085 26.5371 54.2881 27.2115C53.2678 27.886 52.0701 28.2422 50.8471 28.2353C50.0359 28.2416 49.2315 28.086 48.4813 27.7773C47.7311 27.4687 47.0499 27.0134 46.4779 26.4382C45.9059 25.8629 45.4546 25.1791 45.1502 24.4271C44.846 23.6751 44.6949 22.87 44.7059 22.0588ZM53.5529 22.0588C53.5391 21.5315 53.37 21.02 53.0669 20.5883C52.7639 20.1565 52.3403 19.8237 51.8491 19.6315C51.3579 19.4393 50.8209 19.3961 50.3054 19.5075C49.7898 19.6188 49.3185 19.8796 48.9503 20.2575C48.5822 20.6353 48.3336 21.1131 48.2358 21.6315C48.1379 22.1498 48.1949 22.6855 48.3999 23.1715C48.6048 23.6575 48.9485 24.0724 49.388 24.3641C49.8274 24.6558 50.3431 24.8115 50.8706 24.8117C51.2298 24.8188 51.5865 24.7516 51.9185 24.6144C52.2505 24.4774 52.5506 24.2733 52.8001 24.0149C53.0496 23.7566 53.2432 23.4494 53.3687 23.1129C53.4942 22.7763 53.5489 22.4175 53.5294 22.0588H53.5529Z" fill="#0C0C0C"/>
<path d="M70.9529 16.2353V27.3058C70.9529 31.2117 67.8941 32.8706 64.8 32.8706C63.7086 32.9601 62.6139 32.7433 61.6392 32.2444C60.6643 31.7456 59.8481 30.9846 59.2823 30.047L62.2588 28.3294C62.5 28.8157 62.8836 29.2169 63.3587 29.4796C63.8337 29.7423 64.3775 29.8541 64.9176 29.8C65.2617 29.8423 65.6109 29.8082 65.9402 29.7C66.2696 29.5916 66.5709 29.412 66.8227 29.1736C67.0746 28.9353 67.2706 28.6443 67.3968 28.3214C67.523 27.9985 67.5763 27.6517 67.5529 27.3058V26.2353C67.1422 26.7333 66.621 27.1285 66.0309 27.39C65.4407 27.6514 64.7977 27.7716 64.1529 27.7411C62.5928 27.7411 61.0967 27.1214 59.9935 26.0182C58.8903 24.9151 58.2706 23.4189 58.2706 21.8588C58.2706 20.2987 58.8903 18.8026 59.9935 17.6994C61.0967 16.5962 62.5928 15.9764 64.1529 15.9764C64.7977 15.946 65.4407 16.0662 66.0309 16.3276C66.621 16.589 67.1422 16.9843 67.5529 17.4823V16.3058L70.9529 16.2353ZM67.5529 21.8235C67.5763 21.2607 67.4309 20.7036 67.1353 20.2241C66.8396 19.7445 66.4074 19.3644 65.8939 19.1325C65.3805 18.9007 64.8095 18.8277 64.2542 18.923C63.699 19.0183 63.1849 19.2775 62.7782 19.6673C62.3715 20.057 62.0907 20.5596 61.9719 21.1103C61.853 21.661 61.9016 22.2345 62.1114 22.7574C62.3213 23.2802 62.6827 23.7283 63.1492 24.0441C63.6157 24.3598 64.1661 24.5289 64.7294 24.5294C65.097 24.5558 65.4661 24.5049 65.8127 24.38C66.1594 24.2549 66.4761 24.0585 66.7421 23.8035C67.0082 23.5485 67.2179 23.2405 67.3575 22.8995C67.4972 22.5584 67.5637 22.1918 67.5529 21.8235Z" fill="#0C0C0C"/>
<path d="M72.9412 22.0588C72.9412 20.8367 73.3038 19.6421 73.983 18.6261C74.6621 17.6101 75.6274 16.8185 76.7567 16.3514C77.886 15.8842 79.1285 15.7626 80.327 16.0019C81.5254 16.2412 82.6259 16.8306 83.4893 17.6955C84.3526 18.5606 84.9399 19.6622 85.1769 20.8611C85.4139 22.06 85.2899 23.3022 84.8206 24.4306C84.3513 25.5591 83.5578 26.5228 82.5406 27.2001C81.5233 27.8774 80.328 28.2376 79.1059 28.2353C78.2932 28.2432 77.487 28.0887 76.7347 27.7809C75.9825 27.4732 75.2992 27.0183 74.7251 26.4431C74.1509 25.8678 73.6973 25.1836 73.391 24.4308C73.0847 23.678 72.9318 22.8715 72.9412 22.0588ZM81.7883 22.0588C81.7744 21.5311 81.605 21.0191 81.3014 20.5871C80.9979 20.1552 80.5736 19.8223 80.0817 19.6305C79.5898 19.4386 79.0523 19.3961 78.5364 19.5085C78.0205 19.6207 77.5492 19.8828 77.1816 20.2618C76.8139 20.6407 76.5663 21.1198 76.4698 21.6388C76.3732 22.1579 76.4319 22.6939 76.6386 23.1796C76.8453 23.6655 77.1909 24.0795 77.6319 24.3699C78.0729 24.6601 78.5897 24.8139 79.1177 24.8118C79.4769 24.8188 79.8336 24.7516 80.1656 24.6145C80.4976 24.4774 80.7977 24.2733 81.0472 24.0149C81.2967 23.7566 81.4903 23.4494 81.6158 23.1129C81.7413 22.7763 81.796 22.4175 81.7765 22.0588H81.7883Z" fill="#0C0C0C"/>
<path d="M86.9059 13.1177C86.9059 12.7036 87.0287 12.2986 87.2588 11.9543C87.4889 11.6099 87.816 11.3415 88.1986 11.183C88.5813 11.0245 89.0024 10.983 89.4086 11.0638C89.8147 11.1446 90.1879 11.344 90.4808 11.6369C90.7736 11.9298 90.9731 12.303 91.0539 12.7091C91.1347 13.1153 91.0932 13.5364 90.9347 13.9191C90.7762 14.3017 90.5078 14.6287 90.1634 14.8589C89.8191 15.089 89.4142 15.2118 89 15.2118C88.4465 15.2057 87.9174 14.9831 87.526 14.5917C87.1346 14.2003 86.912 13.6712 86.9059 13.1177ZM87.2471 16.2353H90.7765V27.8824H87.2471V16.2353Z" fill="#0C0C0C"/>
<path d="M105.882 22.0589C105.922 22.8335 105.808 23.6083 105.547 24.3386C105.286 25.069 104.883 25.7405 104.361 26.3145C103.84 26.8886 103.21 27.3538 102.508 27.6835C101.806 28.0131 101.045 28.2006 100.271 28.2354C99.6131 28.2791 98.9541 28.1738 98.3431 27.9274C97.7319 27.6808 97.1843 27.2995 96.7412 26.8118V32.5648H93.2118V16.2354H96.7412V17.3295C97.1849 16.8432 97.7329 16.4637 98.3441 16.2192C98.9553 15.9746 99.6139 15.8716 100.271 15.9177C101.042 15.9524 101.8 16.1389 102.499 16.4663C103.199 16.7937 103.827 17.2558 104.348 17.8261C104.87 18.3963 105.273 19.0636 105.536 19.7899C105.8 20.5162 105.917 21.2871 105.882 22.0589ZM102.353 22.0589C102.339 21.5124 102.164 20.9823 101.85 20.5349C101.536 20.0875 101.097 19.7425 100.588 19.5436C100.079 19.3445 99.5227 19.3003 98.9885 19.4162C98.4543 19.5321 97.9663 19.8031 97.5855 20.1952C97.2047 20.5874 96.9481 21.0831 96.848 21.6205C96.7478 22.1578 96.8083 22.7128 97.0222 23.2158C97.2361 23.7188 97.5936 24.1475 98.0501 24.4482C98.5066 24.7489 99.0416 24.9081 99.5882 24.9059C99.9626 24.9218 100.336 24.8584 100.684 24.7198C101.032 24.5812 101.347 24.3706 101.608 24.1018C101.87 23.833 102.071 23.5119 102.199 23.1599C102.327 22.8078 102.38 22.4326 102.353 22.0589Z" fill="#0C0C0C"/>
<path d="M116.624 24.3882C116.624 27.0705 114.271 28.2117 111.776 28.2117C110.759 28.3032 109.738 28.0876 108.844 27.5927C107.951 27.0977 107.227 26.3462 106.765 25.4352L109.8 23.7176C109.92 24.1374 110.181 24.5031 110.539 24.7537C110.896 25.0043 111.329 25.1244 111.765 25.0941C112.6 25.0941 113.024 24.8352 113.024 24.3647C113.024 23.0823 107.294 23.7647 107.294 19.7294C107.294 17.1882 109.435 15.9176 111.859 15.9176C112.78 15.8763 113.695 16.0854 114.507 16.5224C115.319 16.9595 115.998 17.6083 116.471 18.4L113.435 19.9999C113.301 19.6964 113.082 19.4383 112.804 19.2567C112.527 19.075 112.202 18.9777 111.871 18.9764C111.259 18.9764 110.894 19.2117 110.894 19.6235C110.894 20.9647 116.624 20.0823 116.624 24.3882Z" fill="#0C0C0C"/>
<path d="M129.412 16.2354V27.8824H125.882V26.7883C125.481 27.2726 124.972 27.6558 124.396 27.9072C123.82 28.1586 123.193 28.271 122.565 28.2354C120.212 28.2354 118.2 26.553 118.2 23.4118V16.2354H121.729V22.8824C121.701 23.1603 121.734 23.4409 121.826 23.7049C121.918 23.9688 122.065 24.2097 122.258 24.4111C122.452 24.6124 122.687 24.7694 122.947 24.8711C123.207 24.9728 123.486 25.0168 123.765 25.0001C125.035 25.0001 125.929 24.2471 125.929 22.6471V16.2354H129.412Z" fill="#0C0C0C"/>
<path d="M149.412 20.7294V27.8823H145.882V21.0353C145.882 19.8588 145.329 19.1294 144.212 19.1294C143.094 19.1294 142.388 19.9411 142.388 21.3176V27.8823H138.859V21.0353C138.859 19.8588 138.306 19.1294 137.188 19.1294C136.071 19.1294 135.365 19.9411 135.365 21.3176V27.8823H131.835V16.2353H135.365V17.3058C135.731 16.8329 136.207 16.4583 136.754 16.216C137.3 15.9736 137.899 15.871 138.494 15.9176C139.091 15.8864 139.686 16.0111 140.22 16.2793C140.754 16.5474 141.209 16.9498 141.541 17.447C141.929 16.9275 142.442 16.5148 143.033 16.2474C143.622 15.9798 144.272 15.8664 144.918 15.9176C147.671 15.9176 149.412 17.8235 149.412 20.7294Z" fill="#0C0C0C"/>
<path d="M152.376 16.1648C153.806 16.1648 154.965 15.0059 154.965 13.5765C154.965 12.1471 153.806 10.9883 152.376 10.9883C150.947 10.9883 149.788 12.1471 149.788 13.5765C149.788 15.0059 150.947 16.1648 152.376 16.1648Z" fill="#0C0C0C"/>
</svg>
