<svg width="152" height="40" viewBox="0 0 152 40" fill="none" xmlns="http://www.w3.org/2000/svg">
<path d="M44.3251 12.8686H47.9937V27.7257H44.3251V12.8686ZM49.4565 22.1371C49.4565 18.4571 51.7422 16.2514 55.1708 16.2514C58.5994 16.2514 60.8851 18.4571 60.8851 22.1371C60.8851 25.8171 58.6794 28.0457 55.1708 28.0457C51.6622 28.0457 49.4565 25.8971 49.4565 22.1371ZM57.2508 22.1371C57.2508 20.1143 56.4622 18.9257 55.2051 18.9257C53.9479 18.9257 53.1708 20.0686 53.1708 22.1371C53.1708 24.2057 53.9479 25.3371 55.2051 25.3371C56.4622 25.3371 57.2737 24.2057 57.2737 22.1486L57.2508 22.1371ZM62.3479 28.4914H65.8908C66.0521 28.8728 66.3338 29.1911 66.6929 29.3974C67.0519 29.6038 67.4686 29.687 67.8794 29.6343C69.2851 29.6343 70.0165 28.88 70.0165 27.76V25.7029H70.0279C69.7252 26.3434 69.2356 26.8773 68.6237 27.2343C68.0117 27.5913 67.306 27.7546 66.5994 27.7029C63.9137 27.7029 62.1308 25.6571 62.1308 22.1371C62.1308 18.6171 63.8337 16.4229 66.7022 16.4229C67.4269 16.3841 68.1459 16.571 68.7598 16.9578C69.3739 17.3447 69.8529 17.9125 70.1308 18.5829H70.0279V16.5143H73.6622V27.6457C73.6622 30.3314 71.2851 32.0114 67.788 32.0114C64.6108 32 62.5765 30.5486 62.3708 28.5029L62.3479 28.4914ZM70.0279 22.1371C70.0279 20.3429 69.2051 19.2114 67.9022 19.2114C66.5994 19.2114 65.7994 20.3543 65.7994 22.1371C65.7994 23.92 66.5879 24.9714 67.9022 24.9714C69.2165 24.9714 70.0279 24 70.0279 22.1371ZM75.1137 22.1371C75.1137 18.4571 77.3994 16.2514 80.8279 16.2514C84.2565 16.2514 86.5422 18.4571 86.5422 22.1371C86.5422 25.8171 84.3251 28.0457 80.8279 28.0457C77.3308 28.0457 75.1365 25.8971 75.1365 22.1371H75.1137ZM82.9079 22.1371C82.9079 20.1143 82.108 18.9257 80.8622 18.9257C79.6165 18.9257 78.8279 20.0686 78.8279 22.1371C78.8279 24.2057 79.6051 25.3371 80.8622 25.3371C82.1194 25.3371 82.9308 24.2057 82.9308 22.1486L82.9079 22.1371ZM88.028 13.8057C88.0119 13.432 88.1082 13.0621 88.3042 12.7435C88.5002 12.4249 88.787 12.1723 89.1278 12.0182C89.4686 11.8639 89.8477 11.8152 90.2164 11.8783C90.5851 11.9413 90.9265 12.1131 91.1966 12.3718C91.4668 12.6305 91.6534 12.964 91.7325 13.3296C91.8115 13.6952 91.7794 14.0761 91.6402 14.4232C91.501 14.7704 91.2611 15.068 90.9514 15.2777C90.6417 15.4874 90.2763 15.5997 89.9022 15.6C89.6633 15.6061 89.4253 15.5646 89.2025 15.4781C88.9796 15.3914 88.7761 15.2614 88.6038 15.0955C88.4316 14.9297 88.294 14.7313 88.1992 14.5118C88.1042 14.2923 88.0538 14.0562 88.0508 13.8171L88.028 13.8057ZM88.028 16.5029H91.7422V27.7714H88.0851L88.028 16.5029ZM105.102 22.1371C105.102 25.8057 103.457 27.9314 100.657 27.9314C99.9397 27.9757 99.2266 27.7987 98.6134 27.4248C98.0003 27.0507 97.5168 26.4976 97.228 25.84H97.1594V31.3943H93.4908V16.5371H97.1365V18.5486H97.2051C97.4839 17.8781 97.9628 17.3097 98.5763 16.9211C99.1899 16.5326 99.9083 16.3426 100.634 16.3771C103.514 16.3543 105.171 18.4686 105.171 22.1486L105.102 22.1371ZM101.365 22.1371C101.365 20.3543 100.531 19.2 99.2394 19.2C97.9479 19.2 97.1365 20.3429 97.1251 22.1371C97.1137 23.9314 97.9479 25.0629 99.2394 25.0629C100.531 25.0629 101.434 24 101.434 22.1486L101.365 22.1371ZM111.365 16.24C114.439 16.24 116.348 17.6914 116.371 20.0229H113.022C113.022 19.2114 112.348 18.7086 111.342 18.7086C110.337 18.7086 109.857 19.0971 109.857 19.68C109.857 20.2629 110.279 20.4457 111.125 20.6171L113.479 21.0971C115.765 21.5771 116.679 22.4914 116.679 24.1943C116.679 26.48 114.565 28.0343 111.422 28.0343C108.279 28.0343 106.234 26.5257 106.085 24.2286H109.639C109.742 25.0629 110.405 25.5543 111.479 25.5543C112.554 25.5543 113.057 25.2114 113.057 24.6057C113.057 24 112.714 23.8971 111.834 23.7143L109.708 23.2686C107.502 22.8 106.348 21.6457 106.348 19.92C106.417 17.68 108.337 16.2514 111.434 16.2514L111.365 16.24ZM128.965 27.76H125.411V25.6457H125.342C125.143 26.351 124.71 26.9673 124.114 27.3931C123.517 27.8191 122.794 28.029 122.062 27.9886C121.51 28.0065 120.959 27.9075 120.449 27.6979C119.938 27.4885 119.476 27.1731 119.095 26.7728C118.714 26.3723 118.422 25.8959 118.238 25.3747C118.054 24.8536 117.982 24.2993 118.028 23.7486V16.5143H121.697V22.96C121.697 24.2857 122.394 25.0057 123.537 25.0057C123.805 25.0037 124.069 24.9441 124.313 24.8312C124.556 24.7182 124.772 24.5543 124.946 24.3506C125.121 24.147 125.25 23.9082 125.324 23.6506C125.397 23.3929 125.415 23.1224 125.377 22.8571V16.5143H129.034L128.965 27.76ZM130.737 16.5029H134.302V18.6743H134.382C134.579 17.9786 135.002 17.368 135.582 16.9378C136.164 16.5078 136.871 16.2824 137.594 16.2971C138.319 16.2341 139.043 16.4439 139.621 16.8856C140.201 17.3273 140.594 17.9693 140.725 18.6857H140.885C141.114 17.9654 141.573 17.3407 142.194 16.9088C142.813 16.4768 143.559 16.2618 144.314 16.2971C144.815 16.2781 145.316 16.3651 145.781 16.5527C146.247 16.7401 146.668 17.0239 147.017 17.3854C147.365 17.7467 147.633 18.1777 147.803 18.6499C147.974 19.1222 148.043 19.625 148.005 20.1257V27.7714H144.314V21.0629C144.314 19.92 143.777 19.28 142.737 19.28C142.506 19.2762 142.277 19.3224 142.066 19.4152C141.854 19.5081 141.667 19.6456 141.514 19.8182C141.361 19.9909 141.246 20.1944 141.179 20.4152C141.113 20.636 141.094 20.8686 141.125 21.0971V27.7714H137.628V21.0286C137.628 19.8857 137.068 19.28 136.062 19.28C135.829 19.2782 135.598 19.3262 135.386 19.4208C135.172 19.5155 134.982 19.6546 134.827 19.8289C134.673 20.0032 134.557 20.2086 134.489 20.4312C134.419 20.6539 134.398 20.8888 134.428 21.12V27.7714H130.759L130.737 16.5029Z" fill="#0C0C0C"/>
<path d="M37.0679 13.8399C37.0681 11.5653 36.3812 9.34367 35.0973 7.46603C33.8134 5.58838 31.9923 4.14227 29.8726 3.31713C27.753 2.49197 25.4334 2.32626 23.218 2.84167C21.0025 3.35709 18.9943 4.52962 17.4565 6.20566H3.19368V36.3085H33.3079V22.2399C34.4899 21.1828 35.4357 19.8883 36.0836 18.4409C36.7315 16.9934 37.0669 15.4258 37.0679 13.8399ZM31.2737 13.8399C31.2759 14.9299 30.9548 15.9961 30.3509 16.9035C29.7469 17.8108 28.8875 18.5187 27.8811 18.9373C26.8747 19.3561 25.7668 19.4668 24.6974 19.2555C23.6282 19.0443 22.6455 18.5205 21.874 17.7506C21.1025 16.9806 20.5767 15.9991 20.3633 14.9302C20.1498 13.8614 20.2582 12.7532 20.6748 11.746C21.0914 10.7388 21.7974 9.87777 22.7035 9.27197C23.6097 8.66618 24.6751 8.34282 25.7651 8.34281C27.2241 8.34281 28.6235 8.92161 29.6562 9.95219C30.689 10.9828 31.2707 12.381 31.2737 13.8399ZM27.5137 30.5142H8.98797V11.9999H14.6337C14.5246 12.6074 14.4673 13.2229 14.4622 13.8399C14.4653 16.8367 15.6571 19.7099 17.7762 21.829C19.8951 23.948 22.7683 25.1398 25.7651 25.1428C26.351 25.1397 26.9357 25.09 27.5137 24.9942V30.5142Z" fill="#0C0C0C"/>
</svg>
