<svg width="188" height="40" viewBox="0 0 188 40" fill="none" xmlns="http://www.w3.org/2000/svg">
<path d="M30.539 17.828C30.0337 18.3364 29.6468 18.95 29.4057 19.6249C29.1646 20.3 29.0754 21.0199 29.1444 21.7333L29.1204 21.7093C29.1913 22.5492 29.078 23.3943 28.7885 24.1859C28.499 24.9773 28.0404 25.6961 27.4445 26.2921C26.8485 26.888 26.1297 27.3468 25.3381 27.6361C24.5466 27.9256 23.7014 28.0389 22.8617 27.968L22.8857 27.992C21.8812 27.8985 20.8722 28.1171 19.9964 28.618C19.1206 29.1189 18.4206 29.8777 17.992 30.7911C17.5633 31.7044 17.4266 32.7276 17.6008 33.7215C17.775 34.7152 18.2514 35.6311 18.9652 36.3441C19.6789 37.0572 20.5952 37.5328 21.589 37.706C22.583 37.8793 23.6061 37.7417 24.519 37.3123C25.432 36.8827 26.1901 36.1821 26.6902 35.3059C27.1904 34.4296 27.4081 33.4205 27.3137 32.416L27.339 32.44C27.2681 31.6003 27.3813 30.7551 27.6708 29.9635C27.9602 29.172 28.419 28.4532 29.0149 27.8572C29.6109 27.2613 30.3297 26.8025 31.1212 26.5132C31.9128 26.2237 32.7578 26.1104 33.5977 26.1813L33.5724 26.1573C34.3929 26.2311 35.2189 26.0965 35.9737 25.7661C36.7284 25.4357 37.3876 24.9201 37.89 24.2672C38.3924 23.6143 38.722 22.8449 38.8478 22.0308C38.9738 21.2165 38.8922 20.3837 38.6106 19.6093C38.329 18.8351 37.8565 18.1444 37.2369 17.6013C36.6173 17.0583 35.8706 16.6804 35.0661 16.5028C34.2616 16.3252 33.4252 16.3535 32.6345 16.5851C31.8438 16.8168 31.1245 17.2443 30.543 17.828H30.539Z" fill="#0C0C0C"/>
<path d="M20.703 24.848L20.6777 24.824C21.3914 24.8958 22.1122 24.8082 22.7881 24.5674C23.4638 24.3266 24.0777 23.9388 24.5852 23.4317C25.0925 22.9246 25.481 22.311 25.7222 21.6354C25.9636 20.9598 26.0517 20.2392 25.9804 19.5253L26.0057 19.5493C25.9348 18.7094 26.0481 17.8644 26.3374 17.0728C26.6269 16.2813 27.0857 15.5625 27.6816 14.9665C28.2776 14.3706 28.9964 13.9118 29.7878 13.6225C30.5794 13.333 31.4245 13.2197 32.2644 13.2906L32.239 13.2666C33.2437 13.361 34.2529 13.1431 35.1292 12.6428C36.0056 12.1424 36.7061 11.3839 37.1354 10.4708C37.5648 9.55761 37.702 8.53423 37.5284 7.54022C37.3548 6.54621 36.8788 5.62997 36.1652 4.91645C35.4517 4.20294 34.5354 3.72689 33.5414 3.55326C32.5474 3.37962 31.5241 3.51683 30.6109 3.94619C29.6977 4.37554 28.9393 5.07614 28.4389 5.95242C27.9385 6.82869 27.7206 7.83798 27.815 8.84262L27.791 8.81729C27.8621 9.65714 27.749 10.5024 27.4597 11.294C27.1704 12.0856 26.7116 12.8046 26.1157 13.4006C25.5197 13.9965 24.8008 14.4553 24.0092 14.7446C23.2174 15.034 22.3722 15.147 21.5324 15.076L21.5564 15.1013C20.8426 15.0294 20.1217 15.117 19.446 15.3578C18.7702 15.5985 18.1564 15.9865 17.6489 16.4936C17.1414 17.0006 16.753 17.6142 16.5117 18.2898C16.2705 18.9654 16.1824 19.6861 16.2537 20.4L16.2297 20.376C16.3004 21.2157 16.1869 22.0608 15.8974 22.8522C15.6078 23.6436 15.1492 24.3624 14.5533 24.9582C13.9574 25.5541 13.2387 26.0128 12.4472 26.3024C11.6558 26.5918 10.8108 26.7053 9.97104 26.6346L9.99504 26.6586C8.9904 26.5642 7.9811 26.7821 7.10482 27.2825C6.22856 27.7829 5.52796 28.5413 5.09861 29.4545C4.66925 30.3677 4.53202 31.391 4.70566 32.385C4.8793 33.379 5.35536 34.2953 6.06886 35.0088C6.78238 35.7224 7.69862 36.1984 8.69264 36.372C9.68665 36.5456 10.71 36.4084 11.6232 35.979C12.5363 35.5497 13.2948 34.8492 13.7952 33.9729C14.2956 33.0965 14.5134 32.0873 14.419 31.0826L14.4444 31.1066C14.3734 30.2668 14.4868 29.4217 14.7762 28.6301C15.0656 27.8386 15.5244 27.1198 16.1202 26.5238C16.7162 25.928 17.435 25.4692 18.2265 25.1798C19.0181 24.8904 19.8632 24.777 20.703 24.848Z" fill="#0C0C0C"/>
<path d="M11.767 22.172C12.2724 21.6637 12.6593 21.0501 12.9002 20.375C13.141 19.7 13.2299 18.98 13.1604 18.2666L13.1857 18.2906C13.1148 17.4506 13.228 16.6052 13.5176 15.8134C13.8073 15.0217 14.2662 14.3028 14.8625 13.7068C15.4588 13.1108 16.1778 12.6521 16.9697 12.3629C17.7616 12.0736 18.607 11.9607 19.447 12.032L19.4217 12.008C20.426 12.1021 21.4349 11.8841 22.3108 11.3837C23.1866 10.8834 23.8868 10.1251 24.316 9.21227C24.745 8.29939 24.8821 7.27639 24.7085 6.28275C24.5349 5.28911 24.0589 4.37321 23.3457 3.65996C22.6325 2.94671 21.7165 2.47081 20.7229 2.29719C19.7293 2.12355 18.7062 2.26064 17.7934 2.68973C16.8805 3.11883 16.1222 3.81905 15.622 4.69492C15.1216 5.57079 14.9036 6.57967 14.9977 7.58396L14.9737 7.55996C15.0446 8.39976 14.9313 9.24492 14.6418 10.0364C14.3524 10.828 13.8937 11.5468 13.2978 12.1427C12.7018 12.7387 11.983 13.1974 11.1915 13.4868C10.4 13.7762 9.55483 13.8896 8.71503 13.8186L8.73903 13.8426C7.91846 13.769 7.09258 13.9038 6.33794 14.2344C5.5833 14.5649 4.9243 15.0806 4.42202 15.7337C3.91974 16.3866 3.59043 17.156 3.46459 17.9701C3.33876 18.7844 3.42048 19.6172 3.70218 20.3913C3.98387 21.1656 4.45644 21.8561 5.07608 22.399C5.69572 22.9421 6.44239 23.3198 7.2469 23.4974C8.05139 23.6749 8.8877 23.6465 9.67832 23.4149C10.4689 23.1832 11.1883 22.7557 11.7697 22.172H11.767Z" fill="#0C0C0C"/>
<path d="M53.0697 8.87329H57.0297V28.144H53.0697V8.87329Z" fill="#0C0C0C"/>
<path d="M59.2724 21.5453C59.2669 20.1605 59.6725 18.8051 60.4378 17.6509C61.2032 16.4968 62.2938 15.5957 63.5717 15.062C64.8496 14.5281 66.257 14.3856 67.616 14.6524C68.9749 14.9192 70.2241 15.5832 71.2053 16.5605C72.1865 17.5377 72.8556 18.7843 73.1278 20.1421C73.4001 21.5 73.2632 22.9081 72.7345 24.1881C72.2058 25.468 71.3092 26.5624 70.1581 27.3323C69.0069 28.1023 67.6533 28.5133 66.2684 28.5133C65.3492 28.5239 64.437 28.3509 63.5853 28.0048C62.7336 27.6587 61.9594 27.1463 61.3081 26.4976C60.6566 25.8488 60.1412 25.0767 59.7917 24.2264C59.4421 23.3761 59.2656 22.4647 59.2724 21.5453ZM69.3044 21.5453C69.2878 20.9484 69.0957 20.3696 68.7521 19.8812C68.4084 19.3929 67.9284 19.0167 67.3721 18.7997C66.8157 18.5827 66.2078 18.5344 65.6242 18.6611C65.0406 18.7877 64.5073 19.0835 64.0909 19.5116C63.6746 19.9396 63.3936 20.4809 63.2833 21.0679C63.1729 21.6547 63.2378 22.2611 63.4702 22.8112C63.7026 23.3613 64.092 23.8307 64.5896 24.1607C65.0873 24.4907 65.6713 24.6667 66.2684 24.6667C66.6773 24.6776 67.0841 24.6036 67.4632 24.4495C67.8421 24.2953 68.185 24.0644 68.4702 23.7712C68.7554 23.4779 68.9769 23.1287 69.1204 22.7456C69.264 22.3625 69.3266 21.9539 69.3044 21.5453Z" fill="#0C0C0C"/>
<path d="M89.0471 14.9454V27.4787C89.0471 31.9134 85.5884 33.788 82.0777 33.788C80.8417 33.8806 79.604 33.6308 78.5004 33.0664C77.3969 32.5019 76.4701 31.6444 75.8217 30.588L79.2004 28.6347C79.4729 29.1854 79.9072 29.6396 80.4449 29.9368C80.9828 30.2339 81.5985 30.3598 82.2097 30.2974C82.6004 30.3515 82.9983 30.3171 83.3739 30.1967C83.7493 30.0763 84.0931 29.873 84.3795 29.6019C84.6659 29.3307 84.8876 28.9987 85.0284 28.6302C85.1691 28.2618 85.2251 27.8664 85.1924 27.4734V26.2667C84.7287 26.834 84.1385 27.2848 83.4691 27.5828C82.7996 27.8808 82.0697 28.0178 81.3377 27.9827C79.5961 27.9278 77.9443 27.1974 76.7317 25.9459C75.5192 24.6946 74.8412 23.0204 74.8412 21.278C74.8412 19.5356 75.5192 17.8615 76.7317 16.6102C77.9443 15.3587 79.5961 14.6283 81.3377 14.5734C82.0697 14.5383 82.7996 14.6752 83.4691 14.9732C84.1385 15.2712 84.7287 15.722 85.1924 16.2894V14.9427L89.0471 14.9454ZM85.1937 21.28C85.2204 20.6419 85.0553 20.0103 84.72 19.4667C84.3847 18.923 83.8943 18.4922 83.312 18.2296C82.7297 17.967 82.0823 17.8847 81.4528 17.9932C80.8233 18.1018 80.2408 18.3962 79.78 18.8387C79.3193 19.2811 79.0016 19.8512 78.8676 20.4758C78.7337 21.1003 78.7897 21.7507 79.0287 22.3431C79.2675 22.9355 79.6781 23.443 80.2077 23.8C80.7373 24.1571 81.3617 24.3475 82.0004 24.3467C82.4165 24.3758 82.834 24.3174 83.2261 24.1752C83.6183 24.0331 83.9763 23.8103 84.2771 23.5215C84.5779 23.2326 84.8149 22.8839 84.9728 22.4978C85.1307 22.1118 85.206 21.697 85.1937 21.28Z" fill="#0C0C0C"/>
<path d="M91.2897 21.5453C91.2842 20.1605 91.6897 18.8051 92.4552 17.6509C93.2205 16.4968 94.3112 15.5957 95.589 15.062C96.8669 14.5281 98.2744 14.3856 99.6333 14.6524C100.992 14.9192 102.241 15.5832 103.223 16.5605C104.204 17.5377 104.873 18.7843 105.145 20.1421C105.417 21.5 105.281 22.9081 104.752 24.1881C104.223 25.468 103.327 26.5624 102.175 27.3323C101.024 28.1023 99.6706 28.5133 98.2857 28.5133C97.3665 28.5239 96.4542 28.3509 95.6026 28.0048C94.7509 27.6587 93.9768 27.1463 93.3254 26.4976C92.674 25.8488 92.1585 25.0767 91.809 24.2264C91.4594 23.3761 91.2829 22.4647 91.2897 21.5453ZM101.322 21.5453C101.305 20.9484 101.113 20.3696 100.769 19.8812C100.426 19.3929 99.9457 19.0167 99.3894 18.7997C98.833 18.5827 98.225 18.5344 97.6416 18.6611C97.058 18.7877 96.5246 19.0835 96.1082 19.5116C95.692 19.9396 95.4109 20.4809 95.3005 21.0679C95.1901 21.6547 95.2552 22.2611 95.4876 22.8112C95.72 23.3613 96.1093 23.8307 96.6069 24.1607C97.1046 24.4907 97.6885 24.6667 98.2857 24.6667C98.6946 24.6776 99.1014 24.6036 99.4804 24.4495C99.8594 24.2953 100.202 24.0644 100.488 23.7712C100.773 23.4779 100.994 23.1287 101.138 22.7456C101.281 22.3625 101.344 21.9539 101.322 21.5453Z" fill="#0C0C0C"/>
<path d="M107.128 11.408C107.128 10.9381 107.268 10.4787 107.529 10.088C107.79 9.69723 108.161 9.39268 108.595 9.21285C109.029 9.03301 109.507 8.98596 109.968 9.07764C110.429 9.16932 110.852 9.39561 111.185 9.72791C111.517 10.0602 111.743 10.4835 111.835 10.9445C111.926 11.4053 111.879 11.8831 111.7 12.3172C111.52 12.7514 111.215 13.1225 110.824 13.3836C110.434 13.6447 109.974 13.784 109.504 13.784C108.876 13.7777 108.275 13.5255 107.831 13.0812C107.387 12.6369 107.135 12.0362 107.128 11.408ZM107.528 14.9453H111.49V28.1453H107.523L107.528 14.9453Z" fill="#0C0C0C"/>
<path d="M128.588 21.5453C128.634 22.4177 128.507 23.2905 128.214 24.1136C127.922 24.9366 127.469 25.6937 126.883 26.3413C126.296 26.9888 125.588 27.5141 124.798 27.8869C124.008 28.2596 123.152 28.4725 122.279 28.5133C121.545 28.5533 120.812 28.4296 120.132 28.151C119.451 27.8724 118.842 27.446 118.347 26.9026V33.424H114.387V14.9453H118.347V16.1853C118.842 15.6424 119.452 15.2162 120.132 14.938C120.812 14.6596 121.545 14.536 122.279 14.576C123.152 14.6166 124.008 14.8294 124.798 15.2022C125.589 15.575 126.297 16.1004 126.884 16.7481C127.47 17.3958 127.923 18.1532 128.215 18.9765C128.508 19.7997 128.635 20.6728 128.588 21.5453ZM124.628 21.5453C124.613 20.9276 124.416 20.3281 124.061 19.8218C123.707 19.3157 123.211 18.9253 122.635 18.6997C122.06 18.474 121.431 18.4229 120.827 18.553C120.223 18.683 119.671 18.9884 119.239 19.4308C118.808 19.8733 118.516 20.433 118.401 21.0404C118.287 21.6476 118.353 22.275 118.594 22.8445C118.834 23.414 119.236 23.8998 119.751 24.2416C120.266 24.5832 120.87 24.7654 121.488 24.7653C121.913 24.7842 122.336 24.7132 122.731 24.5569C123.126 24.4008 123.483 24.1628 123.78 23.8588C124.076 23.5546 124.305 23.1914 124.451 22.7928C124.598 22.3941 124.658 21.9689 124.628 21.5453Z" fill="#0C0C0C"/>
<path d="M140.808 24.184C140.808 27.22 138.17 28.5133 135.319 28.5133C134.167 28.6176 133.011 28.3741 131.999 27.814C130.987 27.254 130.166 26.4033 129.643 25.372L133.074 23.4187C133.213 23.8953 133.511 24.3101 133.918 24.5935C134.326 24.8769 134.819 25.012 135.314 24.976C136.263 24.976 136.739 24.6853 136.739 24.1587C136.739 22.7053 130.244 23.472 130.244 18.9053C130.244 16.0267 132.674 14.576 135.419 14.576C136.451 14.5433 137.472 14.7881 138.378 15.2848C139.283 15.7816 140.039 16.512 140.566 17.4L137.187 19.2213C137.039 18.8756 136.792 18.5811 136.478 18.3745C136.163 18.168 135.795 18.0587 135.419 18.06C134.732 18.06 134.31 18.3267 134.31 18.7987C134.315 20.304 140.808 19.3 140.808 24.184Z" fill="#0C0C0C"/>
<path d="M155.274 14.9453V28.1453H151.314V26.904C150.856 27.4517 150.276 27.8833 149.62 28.1633C148.964 28.4433 148.252 28.5637 147.54 28.5146C144.874 28.5146 142.607 26.6146 142.607 23.048V14.9453H146.567V22.468C146.534 22.7824 146.57 23.1002 146.672 23.3993C146.774 23.6985 146.94 23.9718 147.159 24.2002C147.378 24.4286 147.643 24.6066 147.938 24.722C148.231 24.8373 148.547 24.8872 148.863 24.868C150.315 24.868 151.318 24.024 151.318 22.1493V14.9493L155.274 14.9453Z" fill="#0C0C0C"/>
<path d="M177.98 20.04V28.144H174.02V20.3826C174.02 19.0626 173.387 18.2186 172.12 18.2186C170.8 18.2186 170.06 19.1426 170.06 20.7V28.144H166.102V20.3826C166.102 19.0626 165.468 18.2186 164.2 18.2186C162.88 18.2186 162.142 19.1426 162.142 20.7V28.144H158.182V14.944H162.142V16.1573C162.552 15.619 163.091 15.1921 163.708 14.9157C164.327 14.6392 165.004 14.522 165.679 14.5746C166.356 14.5414 167.031 14.6845 167.638 14.9897C168.243 15.2948 168.759 15.7518 169.136 16.316C169.575 15.7257 170.156 15.2564 170.826 14.9518C171.495 14.6473 172.231 14.5176 172.964 14.5746C175.995 14.576 177.98 16.74 177.98 20.04Z" fill="#0C0C0C"/>
<path d="M181.33 14.864C182.952 14.864 184.268 13.5483 184.268 11.9254C184.268 10.3024 182.952 8.98669 181.33 8.98669C179.707 8.98669 178.391 10.3024 178.391 11.9254C178.391 13.5483 179.707 14.864 181.33 14.864Z" fill="#0C0C0C"/>
</svg>
