<svg width="163" height="40" viewBox="0 0 163 40" fill="none" xmlns="http://www.w3.org/2000/svg">
<g clip-path="url(#clip0_1_1186)">
<path d="M47.5178 28.0913H59.1782V24.5791H51.6622V11.3499H47.5178V28.0913Z" fill="#0C0C0C"/>
<path d="M66.0867 25.7499C64.4243 25.7499 63.558 24.2982 63.558 22.1206C63.558 19.9431 64.4243 18.468 66.0867 18.468C67.7492 18.468 68.6389 19.9431 68.6389 22.1206C68.6389 24.2982 67.7492 25.7499 66.0867 25.7499ZM66.1102 28.466C69.9736 28.466 72.5024 25.7265 72.5024 22.1206C72.5024 18.5148 69.9736 15.7753 66.1102 15.7753C62.2702 15.7753 59.6945 18.5148 59.6945 22.1206C59.6945 25.7265 62.2702 28.466 66.1102 28.466Z" fill="#0C0C0C"/>
<path d="M79.1896 32.2357C80.9691 32.2357 82.5379 31.8377 83.5915 30.9011C84.5515 30.0348 85.1837 28.7235 85.1837 26.9206V16.1031H81.5311V17.3909H81.4842C80.7818 16.384 79.7047 15.7518 78.1125 15.7518C75.1389 15.7518 73.0784 18.2338 73.0784 21.746C73.0784 25.4221 75.5837 27.4357 78.2764 27.4357C79.7281 27.4357 80.6413 26.8504 81.3437 26.0543H81.4374V27.2484C81.4374 28.7001 80.7584 29.5431 79.1428 29.5431C77.8784 29.5431 77.2462 29.0045 77.0354 28.3723H73.3359C73.7106 30.8777 75.8881 32.2357 79.1896 32.2357ZM79.1662 24.6026C77.7379 24.6026 76.8013 23.4318 76.8013 21.6289C76.8013 19.8026 77.7379 18.6318 79.1662 18.6318C80.7584 18.6318 81.6013 19.9899 81.6013 21.6055C81.6013 23.2913 80.8286 24.6026 79.1662 24.6026Z" fill="#0C0C0C"/>
<path d="M92.6944 25.7499C91.0319 25.7499 90.1656 24.2982 90.1656 22.1206C90.1656 19.9431 91.0319 18.468 92.6944 18.468C94.3568 18.468 95.2465 19.9431 95.2465 22.1206C95.2465 24.2982 94.3568 25.7499 92.6944 25.7499ZM92.7178 28.466C96.5812 28.466 99.1103 25.7265 99.1103 22.1206C99.1103 18.5148 96.5812 15.7753 92.7178 15.7753C88.8778 15.7753 86.3022 18.5148 86.3022 22.1206C86.3022 25.7265 88.8778 28.466 92.7178 28.466Z" fill="#0C0C0C"/>
<path d="M100.224 28.0913H104.041V16.103H100.224V28.0913ZM100.224 14.4406H104.041V11.3499H100.224V14.4406Z" fill="#0C0C0C"/>
<path d="M105.697 32.0484H109.513V26.8504H109.56C110.309 27.8572 111.41 28.466 112.955 28.466C116.093 28.466 118.177 25.984 118.177 22.0972C118.177 18.4913 116.233 15.7518 113.049 15.7518C111.41 15.7518 110.239 16.4777 109.42 17.5548H109.349V16.1031H105.697V32.0484ZM111.972 25.5157C110.333 25.5157 109.396 24.1811 109.396 22.2377C109.396 20.2943 110.239 18.8191 111.901 18.8191C113.54 18.8191 114.313 20.1772 114.313 22.2377C114.313 24.2748 113.423 25.5157 111.972 25.5157Z" fill="#0C0C0C"/>
<path d="M124.391 28.466C127.529 28.466 129.847 27.1079 129.847 24.4855C129.847 21.4182 127.365 20.8796 125.258 20.5284C123.736 20.2474 122.378 20.1304 122.378 19.2874C122.378 18.5382 123.103 18.187 124.04 18.187C125.094 18.187 125.82 18.5148 125.96 19.5918H129.472C129.285 17.227 127.459 15.7518 124.063 15.7518C121.23 15.7518 118.889 17.0631 118.889 19.5918C118.889 22.4016 121.113 22.9635 123.197 23.3148C124.789 23.5957 126.241 23.7128 126.241 24.7899C126.241 25.5626 125.515 25.984 124.368 25.984C123.103 25.984 122.307 25.3987 122.167 24.2045H118.561C118.678 26.8504 120.879 28.466 124.391 28.466Z" fill="#0C0C0C"/>
<path d="M135.03 28.4425C136.693 28.4425 137.746 27.7869 138.613 26.6162H138.683V28.0913H142.336V16.103H138.519V22.7996C138.519 24.2279 137.723 25.2113 136.412 25.2113C135.194 25.2113 134.609 24.4855 134.609 23.1742V16.103H130.816V23.9703C130.816 26.6396 132.267 28.4425 135.03 28.4425Z" fill="#0C0C0C"/>
<path d="M143.996 28.0913H147.813V21.3713C147.813 19.9431 148.515 18.9362 149.709 18.9362C150.857 18.9362 151.395 19.6855 151.395 20.9733V28.0913H155.212V21.3713C155.212 19.9431 155.891 18.9362 157.108 18.9362C158.256 18.9362 158.794 19.6855 158.794 20.9733V28.0913H162.611V20.2943C162.611 17.6016 161.253 15.7518 158.537 15.7518C156.991 15.7518 155.703 16.4074 154.767 17.8591H154.72C154.111 16.5713 152.917 15.7518 151.348 15.7518C149.616 15.7518 148.468 16.5713 147.719 17.8123H147.649V16.1031H143.996V28.0913Z" fill="#0C0C0C"/>
<path fill-rule="evenodd" clip-rule="evenodd" d="M8.51628 3.79661C7.12051 4.77257 5.85836 5.92648 4.76271 7.22542C9.24007 6.80974 14.9284 7.48849 21.5325 10.7906C28.5848 14.3166 34.2636 14.4358 38.2158 13.6735C37.8572 12.5877 37.4057 11.5442 36.8709 10.5522C32.3467 11.0294 26.5467 10.3978 19.7873 7.01818C15.495 4.87204 11.7114 3.98797 8.51628 3.79661ZM34.2281 6.79054C30.6553 2.79869 25.4632 0.286499 19.6843 0.286499C17.9872 0.286499 16.3406 0.503189 14.7708 0.910382C16.8969 1.49048 19.1554 2.33917 21.5325 3.52773C26.4814 6.00213 30.754 6.79885 34.2281 6.79054ZM39.0608 17.4846C34.2862 18.4275 27.6929 18.2338 19.7873 14.281C12.3965 10.5856 6.51403 10.6321 2.54669 11.5138C2.34191 11.5593 2.14194 11.6071 1.94681 11.6568C1.42739 12.7865 1.01277 13.9744 0.715274 15.2079C1.03301 15.1231 1.36135 15.0424 1.70011 14.9671C6.51319 13.8975 13.3137 13.9439 21.5325 18.0534C28.9234 21.7488 34.8059 21.7023 38.7733 20.8206C38.9092 20.7905 39.0431 20.7593 39.1748 20.7271C39.1893 20.4195 39.1965 20.1099 39.1965 19.7987C39.1965 19.0157 39.1505 18.2435 39.0608 17.4846ZM38.5378 24.8448C33.8095 25.6715 27.4082 25.3542 19.7873 21.5438C12.3965 17.8484 6.51403 17.895 2.54669 18.7766C1.66605 18.9722 0.873846 19.2106 0.175008 19.4622C0.173103 19.5741 0.17215 19.6863 0.17215 19.7987C0.17215 30.575 8.90804 39.3109 19.6843 39.3109C28.7156 39.3109 36.3139 33.1752 38.5378 24.8448Z" fill="#0C0C0C"/>
</g>
<defs>
<clipPath id="clip0_1_1186">
<rect width="162.927" height="40" fill="white" transform="translate(0.0731812)"/>
</clipPath>
</defs>
</svg>
