<svg width="30" height="30" viewBox="0 0 30 30" fill="none" xmlns="http://www.w3.org/2000/svg">
<path d="M9.66666 9.66664L10.3485 10.3981L10.8961 9.88773L10.5606 9.2185L9.66666 9.66664ZM5.65644 1.66664L6.5504 1.2185C6.41445 0.947305 6.16273 0.752478 5.8661 0.688865C5.56948 0.625252 5.26001 0.699745 5.02481 0.891372L5.65644 1.66664ZM20.3329 20.3334L20.7811 19.4394L20.1119 19.104L19.6015 19.6516L20.3329 20.3334ZM28.3329 24.3437L29.1083 24.9753C29.2999 24.7401 29.3744 24.4306 29.3108 24.134C29.2472 23.8374 29.0523 23.5857 28.7811 23.4497L28.3329 24.3437ZM0.803595 9.29246C1.19248 11.2195 1.84044 13.1212 3.1598 15.4208L4.89456 14.4256C3.68484 12.317 3.11157 10.6188 2.76414 8.89716L0.803595 9.29246ZM4.70901 15.6546L10.3485 10.3981L8.98484 8.93513L3.34534 14.1917L4.70901 15.6546ZM10.5606 9.2185L6.5504 1.2185L4.76246 2.11477L8.77269 10.1148L10.5606 9.2185ZM5.02481 0.891372C3.0086 2.534 -0.0178753 5.21466 0.803595 9.29246L2.76414 8.89716C2.20438 6.11852 4.17578 4.16281 6.28806 2.4419L5.02481 0.891372ZM3.1598 15.4208C4.4877 17.7353 6.18904 19.9266 8.13218 21.8684L9.5464 20.4541C7.71976 18.6288 6.12861 16.5765 4.89456 14.4256L3.1598 15.4208ZM21.1024 27.236C19.3808 26.8885 17.6827 26.3153 15.5741 25.1056L14.5788 26.8404C16.8784 28.1597 18.7797 28.8076 20.7068 29.1965L21.1024 27.236ZM15.808 26.6548L21.0645 21.0153L19.6015 19.6516L14.3449 25.2912L15.808 26.6548ZM19.8848 21.2274L27.8848 25.2377L28.7811 23.4497L20.7811 19.4394L19.8848 21.2274ZM27.5577 23.7121C25.8368 25.8244 23.8811 27.7957 21.1024 27.236L20.7068 29.1965C24.7845 30.018 27.4656 26.9916 29.1083 24.9753L27.5577 23.7121ZM15.5741 25.1056C13.4232 23.8716 11.3718 22.2808 9.5464 20.4541L8.13218 21.8684C10.0739 23.8114 12.2642 25.5124 14.5788 26.8404L15.5741 25.1056Z" fill="#464646"/>
</svg>
