<svg width="200" height="40" viewBox="0 0 200 40" fill="none" xmlns="http://www.w3.org/2000/svg">
<g clip-path="url(#clip0_13_166)">
<path d="M45.4904 32.8084C43.0543 32.8084 40.9999 32.2542 39.3207 31.1393C37.6415 30.0244 36.4521 28.4857 35.7397 26.5232L39.9186 24.0195C40.8854 26.6145 42.7872 27.9054 45.624 27.9054C46.947 27.9054 47.9392 27.6642 48.6007 27.1817C49.2622 26.6992 49.5929 26.0407 49.5929 25.2192C49.5929 24.3259 49.205 23.6348 48.4226 23.1458C47.6403 22.6373 46.2473 22.0896 44.2438 21.5093C42.0685 20.8312 40.3575 20.0423 39.1045 19.1491C37.5461 17.9625 36.7638 16.2216 36.7638 13.9201C36.7638 11.6185 37.5525 9.76686 39.1363 8.43678C40.72 7.05455 42.6473 6.36343 44.9116 6.36343C46.8961 6.36343 48.658 6.85895 50.1908 7.84999C51.7237 8.84102 52.9195 10.2493 53.7718 12.0619L49.6629 14.4938C48.6707 12.3162 47.0869 11.2273 44.9116 11.2273C43.9194 11.2273 43.1243 11.462 42.5391 11.938C41.9476 12.4074 41.655 13.0203 41.655 13.7701C41.655 14.5721 41.9731 15.2241 42.6091 15.7326C43.3151 16.2412 44.5681 16.7758 46.3682 17.33L48.0664 17.9103C48.3717 18.0081 48.906 18.2102 49.6629 18.5297C50.3689 18.797 50.8905 19.0513 51.2212 19.2925C52.3789 20.0162 53.1612 20.7726 53.5619 21.5419C54.1789 22.559 54.4842 23.7587 54.4842 25.1409C54.4842 27.4881 53.6446 29.3528 51.9654 30.7351C50.2862 32.1173 48.1237 32.8084 45.4777 32.8084H45.4904Z" fill="white"/>
<path d="M66.9188 13.6267C69.304 13.6267 71.3394 14.559 73.0122 16.4237C74.7104 18.2885 75.5627 20.5509 75.5627 23.2176C75.5627 25.8842 74.7104 28.2053 73.0122 30.0505C71.3584 31.8891 69.3294 32.8084 66.9188 32.8084C64.5082 32.8084 62.5237 31.9217 61.1753 30.1548V39.5631H56.6021V14.1352H61.1753V16.2803C62.5237 14.5134 64.4382 13.6267 66.9188 13.6267ZM62.5619 26.9209C63.4841 27.8663 64.6545 28.3357 66.0729 28.3357C67.4913 28.3357 68.6616 27.8663 69.5839 26.9209C70.5252 25.9494 71.0023 24.7171 71.0023 23.2176C71.0023 21.718 70.5316 20.4922 69.5839 19.5468C68.6616 18.5753 67.4913 18.0929 66.0729 18.0929C64.6545 18.0929 63.4841 18.5753 62.5619 19.5468C61.6396 20.4922 61.1816 21.7114 61.1816 23.2176C61.1816 24.7237 61.6396 25.9559 62.5619 26.9209Z" fill="white"/>
<path d="M79.7864 11.9511C79.0295 11.9511 78.3744 11.6642 77.821 11.097C77.2677 10.5297 76.9878 9.85816 76.9878 9.08228C76.9878 8.30641 77.2677 7.62833 77.821 7.04805C78.3744 6.46778 79.0295 6.17438 79.7864 6.17438C80.5433 6.17438 81.2366 6.46778 81.79 7.04805C82.3433 7.62833 82.6232 8.30641 82.6232 9.08228C82.6232 9.85816 82.3433 10.5297 81.79 11.097C81.2366 11.6642 80.5688 11.9511 79.7864 11.9511ZM82.0889 32.2934H77.5157V14.1287H82.0889V32.2934Z" fill="white"/>
<path d="M94.9433 13.6267C96.9023 13.6267 98.4988 14.2917 99.7264 15.6218C101.005 16.9779 101.641 18.8166 101.641 21.1442V32.2999H97.0677V21.731C97.0677 20.5444 96.756 19.625 96.1263 18.9731C95.4966 18.3211 94.6443 17.9951 93.5567 17.9951C92.3545 17.9951 91.4005 18.3797 90.7008 19.1426C90.0012 19.9054 89.6577 21.0268 89.6577 22.5004V32.3064H85.0845V14.1418H89.6577V16.176C90.7453 14.4808 92.5072 13.6332 94.9369 13.6332L94.9433 13.6267Z" fill="white"/>
<path d="M121.492 25.141H108.129C108.72 27.4164 110.387 28.5574 113.128 28.5574C114.877 28.5574 116.2 27.9511 117.097 26.7384L120.786 28.916C119.037 31.511 116.461 32.8019 113.058 32.8019C110.126 32.8019 107.779 31.8956 106.004 30.0766C104.23 28.2575 103.346 25.969 103.346 23.2111C103.346 20.4531 104.217 18.2233 105.966 16.3781C107.69 14.5395 109.935 13.6202 112.702 13.6202C115.469 13.6202 117.46 14.5395 119.12 16.3781C120.818 18.2168 121.67 20.4987 121.67 23.2111C121.67 23.7196 121.613 24.3586 121.492 25.1344V25.141ZM108.059 21.5093H117.097C116.836 20.3227 116.308 19.4164 115.52 18.784C114.725 18.1516 113.79 17.8386 112.702 17.8386C111.474 17.8386 110.457 18.1581 109.655 18.8036C108.854 19.4425 108.32 20.3488 108.059 21.5093Z" fill="white"/>
<path d="M126.905 20.6748V29.9006H138.952V32.2999H124.424V6.86551H138.78V9.26486H126.905V18.2755H137.89V20.6748H126.905Z" fill="white"/>
<path d="M155.966 17.6952V6.86551H158.307V32.2934H155.966V28.7335C154.338 31.4001 151.946 32.7302 148.804 32.7302C146.273 32.7302 144.116 31.8109 142.316 29.9723C140.542 28.1336 139.658 25.8777 139.658 23.2176C139.658 20.5574 140.542 18.3015 142.316 16.4629C144.11 14.6243 146.273 13.705 148.804 13.705C151.946 13.705 154.331 15.035 155.966 17.7017V17.6952ZM144.021 28.3423C145.369 29.7245 147.023 30.4156 148.982 30.4156C150.941 30.4156 152.595 29.7245 153.943 28.3423C155.292 26.9144 155.966 25.2062 155.966 23.2176C155.966 21.229 155.292 19.5142 153.943 18.132C152.595 16.7302 150.941 16.0261 148.982 16.0261C147.023 16.0261 145.369 16.7302 144.021 18.132C142.673 19.5142 141.998 21.2094 141.998 23.2176C141.998 25.2257 142.673 26.9144 144.021 28.3423Z" fill="white"/>
<path d="M177.14 17.6952V14.1353H179.481V31.5762C179.481 34.1907 178.603 36.251 176.861 37.7506C175.111 39.2502 173.019 40 170.589 40C166.455 40 163.656 38.52 162.187 35.5664L164.241 34.3667C165.303 36.5705 167.422 37.6724 170.583 37.6724C172.612 37.6724 174.215 37.1247 175.385 36.0358C176.555 34.947 177.14 33.4539 177.14 31.5697V28.7335C175.512 31.4002 173.121 32.7302 169.978 32.7302C167.447 32.7302 165.291 31.8109 163.491 29.9723C161.716 28.1336 160.832 25.8777 160.832 23.2176C160.832 20.5574 161.716 18.3015 163.491 16.4629C165.284 14.6243 167.447 13.705 169.978 13.705C173.121 13.705 175.506 15.035 177.14 17.7017V17.6952ZM165.195 28.3423C166.544 29.7245 168.197 30.4156 170.157 30.4156C172.116 30.4156 173.769 29.7245 175.118 28.3423C176.466 26.9144 177.14 25.2062 177.14 23.2176C177.14 21.229 176.466 19.5142 175.118 18.132C173.769 16.7302 172.116 16.0261 170.157 16.0261C168.197 16.0261 166.544 16.7302 165.195 18.132C163.847 19.5142 163.173 21.2094 163.173 23.2176C163.173 25.2257 163.847 26.9144 165.195 28.3423Z" fill="white"/>
<path d="M191.21 13.6984C193.856 13.6984 195.967 14.6569 197.551 16.5672C199.179 18.458 199.993 20.6944 199.993 23.2893C199.993 23.4132 199.968 23.7848 199.924 24.4173H184.366C184.601 26.2363 185.358 27.6838 186.636 28.7791C187.915 29.8679 189.505 30.4156 191.42 30.4156C194.116 30.4156 196.012 29.3855 197.125 27.3252L199.179 28.5574C198.397 29.8679 197.328 30.8916 195.974 31.6283C194.612 32.3651 193.086 32.7367 191.381 32.7367C188.595 32.7367 186.325 31.8435 184.576 30.0505C182.826 28.2575 181.955 25.982 181.955 23.2176C181.955 20.4531 182.82 18.2168 184.544 16.4238C186.268 14.6047 188.487 13.6984 191.21 13.6984ZM191.21 16.0261C189.365 16.0261 187.826 16.5868 186.586 17.6952C185.345 18.8101 184.607 20.2771 184.372 22.0896H197.589C197.328 20.1532 196.61 18.6601 195.427 17.6234C194.199 16.5607 192.793 16.0261 191.21 16.0261Z" fill="white"/>
<path d="M29.9962 5.56805C29.9962 2.49063 27.5601 0 24.5643 0H20.4554C17.4405 0 15.0045 2.50367 15.0045 5.58761C15.0045 7.81092 13.2426 9.61695 11.0737 9.61695H5.43824C2.42972 9.62347 0 12.1141 0 15.1915C0 18.2689 2.42972 20.7596 5.43188 20.7596H11.0673C13.2362 20.7596 14.9981 22.5656 14.9981 24.7889V24.8346C14.9981 27.0579 13.2362 28.8639 11.0673 28.8639H5.43188C2.42972 28.8639 0 31.3545 0 34.4319C0 37.5094 2.42972 40 5.43188 40H9.54077C12.5557 40 14.9917 37.4963 14.9917 34.4124C14.9917 32.1891 16.7536 30.383 18.9225 30.383H24.5579C27.5601 30.383 29.9898 27.8924 29.9898 24.815C29.9898 21.7376 27.5601 19.2469 24.5579 19.2469H18.9225C16.7536 19.2469 14.9917 17.4409 14.9917 15.2176V15.172C14.9917 12.9487 16.7536 11.1426 18.9225 11.1426H24.5579C27.5601 11.1426 29.9898 8.652 29.9898 5.57457L29.9962 5.56805Z" fill="#B4FF5C"/>
</g>
<defs>
<clipPath id="clip0_13_166">
<rect width="200" height="40" fill="white"/>
</clipPath>
</defs>
</svg>
