<svg width="70" height="70" viewBox="0 0 70 70" fill="none" xmlns="http://www.w3.org/2000/svg">
<rect width="70" height="70" rx="12" fill="#0C0C0C"/>
<path d="M52.1877 43.25H50.8127V37.75C50.8127 37.3853 50.6678 37.0356 50.4099 36.7777C50.1521 36.5199 49.8023 36.375 49.4377 36.375H48.0627C47.698 36.375 47.3482 36.5199 47.0904 36.7777C46.8325 37.0356 46.6877 37.3853 46.6877 37.75V43.25H46.0002V33.625C46.0002 33.2603 45.8553 32.9106 45.5974 32.6527C45.3396 32.3949 44.9898 32.25 44.6252 32.25H43.2502C42.8855 32.25 42.5357 32.3949 42.2779 32.6527C42.02 32.9106 41.8752 33.2603 41.8752 33.625V43.25H41.1877V35.6875C41.1877 35.3228 41.0428 34.9731 40.7849 34.7152C40.5271 34.4574 40.1773 34.3125 39.8127 34.3125H38.4377C38.073 34.3125 37.7232 34.4574 37.4654 34.7152C37.2075 34.9731 37.0627 35.3228 37.0627 35.6875V43.25C36.8804 43.2498 36.7056 43.1773 36.5767 43.0484C36.4478 42.9195 36.3753 42.7448 36.3752 42.5625V31.5625C36.3752 31.3802 36.3027 31.2053 36.1738 31.0764C36.0449 30.9474 35.87 30.875 35.6877 30.875C35.5053 30.875 35.3305 30.9474 35.2015 31.0764C35.0726 31.2053 35.0002 31.3802 35.0002 31.5625V42.5625C35.0007 43.1093 35.2182 43.6336 35.6049 44.0203C35.9915 44.407 36.5158 44.6245 37.0627 44.625H52.1877C52.37 44.625 52.5449 44.5526 52.6738 44.4236C52.8027 44.2947 52.8752 44.1198 52.8752 43.9375C52.8752 43.7552 52.8027 43.5803 52.6738 43.4514C52.5449 43.3224 52.37 43.25 52.1877 43.25ZM38.4377 43.25L38.437 35.6875H39.8127V43.25H38.4377ZM43.2502 43.25L43.2495 33.625H44.6252V43.25H43.2502ZM48.0627 43.25L48.062 37.75H49.4377V43.25H48.0627ZM44.6252 22.625C44.6252 22.4427 44.6976 22.2678 44.8265 22.1389C44.9555 22.0099 45.1303 21.9375 45.3127 21.9375H51.5002C51.6825 21.9375 51.8574 22.0099 51.9863 22.1389C52.1152 22.2678 52.1877 22.4427 52.1877 22.625C52.1877 22.8073 52.1152 22.9822 51.9863 23.1111C51.8574 23.2401 51.6825 23.3125 51.5002 23.3125H45.3127C45.1303 23.3125 44.9555 23.2401 44.8265 23.1111C44.6976 22.9822 44.6252 22.8073 44.6252 22.625ZM42.5627 22.625C42.5627 22.489 42.603 22.3561 42.6785 22.243C42.7541 22.13 42.8614 22.0419 42.9871 21.9898C43.1127 21.9378 43.2509 21.9242 43.3843 21.9507C43.5176 21.9772 43.6401 22.0427 43.7363 22.1389C43.8324 22.235 43.8979 22.3575 43.9244 22.4909C43.951 22.6242 43.9374 22.7625 43.8853 22.8881C43.8333 23.0137 43.7452 23.1211 43.6321 23.1966C43.5191 23.2722 43.3861 23.3125 43.2502 23.3125C43.0678 23.3125 42.893 23.2401 42.764 23.1111C42.6351 22.9822 42.5627 22.8073 42.5627 22.625ZM44.6252 25.375C44.6252 25.1927 44.6976 25.0178 44.8265 24.8889C44.9555 24.7599 45.1303 24.6875 45.3127 24.6875H51.5002C51.6825 24.6875 51.8574 24.7599 51.9863 24.8889C52.1152 25.0178 52.1877 25.1927 52.1877 25.375C52.1877 25.5573 52.1152 25.7322 51.9863 25.8611C51.8574 25.9901 51.6825 26.0625 51.5002 26.0625H45.3127C45.1303 26.0625 44.9555 25.9901 44.8265 25.8611C44.6976 25.7322 44.6252 25.5573 44.6252 25.375ZM44.6252 28.125C44.6252 27.9427 44.6976 27.7678 44.8265 27.6389C44.9555 27.5099 45.1303 27.4375 45.3127 27.4375H51.5002C51.6825 27.4375 51.8574 27.5099 51.9863 27.6389C52.1152 27.7678 52.1877 27.9427 52.1877 28.125C52.1877 28.3073 52.1152 28.4822 51.9863 28.6111C51.8574 28.7401 51.6825 28.8125 51.5002 28.8125H45.3127C45.1303 28.8125 44.9555 28.7401 44.8265 28.6111C44.6976 28.4822 44.6252 28.3073 44.6252 28.125ZM42.5627 25.375C42.5627 25.239 42.603 25.1061 42.6785 24.993C42.7541 24.88 42.8614 24.7919 42.9871 24.7398C43.1127 24.6878 43.2509 24.6742 43.3843 24.7007C43.5176 24.7272 43.6401 24.7927 43.7363 24.8889C43.8324 24.985 43.8979 25.1075 43.9244 25.2409C43.951 25.3742 43.9374 25.5125 43.8853 25.6381C43.8333 25.7637 43.7452 25.8711 43.6321 25.9466C43.5191 26.0222 43.3861 26.0625 43.2502 26.0625C43.0678 26.0625 42.893 25.9901 42.764 25.8611C42.6351 25.7322 42.5627 25.5573 42.5627 25.375ZM42.5627 28.125C42.5627 27.989 42.603 27.8561 42.6785 27.743C42.7541 27.63 42.8614 27.5419 42.9871 27.4898C43.1127 27.4378 43.2509 27.4242 43.3843 27.4507C43.5176 27.4772 43.6401 27.5427 43.7363 27.6389C43.8324 27.735 43.8979 27.8575 43.9244 27.9909C43.951 28.1242 43.9374 28.2625 43.8853 28.3881C43.8333 28.5137 43.7452 28.6211 43.6321 28.6966C43.5191 28.7722 43.3861 28.8125 43.2502 28.8125C43.0678 28.8125 42.893 28.7401 42.764 28.6111C42.6351 28.4822 42.5627 28.3073 42.5627 28.125ZM53.5627 17.8125H19.1877C18.6408 17.813 18.1165 18.0305 17.7299 18.4172C17.3432 18.8039 17.1257 19.3282 17.1252 19.875V28.8469C16.5525 28.9263 16.0279 29.2101 15.6483 29.6461C15.2686 30.082 15.0594 30.6406 15.0594 31.2188C15.0594 31.7969 15.2686 32.3555 15.6483 32.7914C16.0279 33.2274 16.5525 33.5112 17.1252 33.5906V36.815C16.1907 37.7122 15.4626 38.802 14.9915 40.0087C14.5203 41.2154 14.3173 42.5102 14.3966 43.8032C14.4759 45.0963 14.8356 46.3565 15.4507 47.4966C16.0658 48.6368 16.9216 49.6294 17.9587 50.4057C18.9958 51.1819 20.1894 51.7233 21.4567 51.9921C22.7239 52.2609 24.0345 52.2508 25.2974 51.9625C26.5604 51.6742 27.7455 51.1145 28.7705 50.3223C29.7955 49.5302 30.6359 48.5245 31.2333 47.375H53.5627C54.1095 47.3745 54.6338 47.157 55.0205 46.7703C55.4071 46.3836 55.6246 45.8593 55.6252 45.3125V19.875C55.6246 19.3282 55.4071 18.8039 55.0205 18.4172C54.6338 18.0305 54.1095 17.813 53.5627 17.8125ZM16.4377 31.2188C16.4377 31.0148 16.4981 30.8154 16.6115 30.6458C16.7248 30.4762 16.8858 30.3441 17.0743 30.266C17.2627 30.1879 17.4701 30.1675 17.6701 30.2073C17.8701 30.2471 18.0539 30.3453 18.1981 30.4895C18.3423 30.6338 18.4406 30.8175 18.4803 31.0176C18.5201 31.2176 18.4997 31.425 18.4217 31.6134C18.3436 31.8018 18.2114 31.9629 18.0418 32.0762C17.8723 32.1895 17.6729 32.25 17.4689 32.25C17.1955 32.2496 16.9334 32.1409 16.7401 31.9476C16.5468 31.7542 16.438 31.4921 16.4377 31.2188ZM22.6252 35.7219V42.8389L16.3565 46.2145C15.8885 45.1183 15.6865 43.927 15.7669 42.7378C15.8473 41.5486 16.2078 40.3952 16.8191 39.372C17.4304 38.3488 18.2751 37.4847 19.2842 36.8503C20.2933 36.2159 21.4381 35.8293 22.6252 35.7219ZM24.0002 35.7219C25.7595 35.8846 27.4064 36.6576 28.6557 37.9069C29.9051 39.1562 30.678 40.8032 30.8408 42.5625H24.0002V35.7219ZM23.3127 50.8125C22.0643 50.8117 20.8356 50.5018 19.7362 49.9103C18.6368 49.3189 17.701 48.4644 17.0124 47.4231L23.4866 43.9375H30.8401C30.667 45.8151 29.7994 47.5605 28.4071 48.832C27.0149 50.1036 25.1982 50.8098 23.3127 50.8125ZM54.2502 45.3125C54.25 45.4948 54.1775 45.6695 54.0486 45.7984C53.9197 45.9273 53.7449 45.9998 53.5627 46H31.8129C32.3835 44.2487 32.3981 42.3637 31.8548 40.6037C31.3115 38.8437 30.237 37.295 28.7785 36.1699C27.3201 35.0449 25.5492 34.3988 23.709 34.3202C21.8687 34.2415 20.0492 34.7343 18.5002 35.7308V33.3837C18.9104 33.1895 19.2573 32.8832 19.5007 32.5C19.744 32.1169 19.8738 31.6726 19.8752 31.2188C19.8731 30.8584 19.7892 30.5031 19.6297 30.1799L23.1085 27.0876C23.4306 27.2813 23.7936 27.397 24.1684 27.4255C24.5433 27.4539 24.9196 27.3942 25.2672 27.2512L28.297 29.6437C28.1507 30.0106 28.0971 30.408 28.1409 30.8006C28.1846 31.1932 28.3244 31.569 28.5479 31.8947C28.7713 32.2204 29.0716 32.4861 29.4222 32.6683C29.7727 32.8504 30.1627 32.9434 30.5577 32.939C30.9527 32.9346 31.3406 32.8329 31.687 32.643C32.0333 32.4532 32.3276 32.1809 32.5438 31.8502C32.76 31.5196 32.8914 31.1408 32.9264 30.7473C32.9614 30.3538 32.8989 29.9578 32.7445 29.5942L36.7182 26.3114C37.1914 26.6398 37.767 26.787 38.3397 26.7261C38.9125 26.6652 39.4442 26.4002 39.8377 25.9795C40.2312 25.5589 40.4602 25.0107 40.4828 24.4352C40.5055 23.8596 40.3203 23.2952 39.961 22.8449C39.6018 22.3947 39.0926 22.0887 38.5264 21.9829C37.9602 21.8772 37.3748 21.9787 36.8773 22.269C36.3798 22.5592 36.0033 23.0188 35.8167 23.5637C35.6301 24.1086 35.6458 24.7025 35.8609 25.2368L31.87 28.5341C31.4664 28.2651 30.9911 28.1243 30.5061 28.1301C30.0212 28.1358 29.5493 28.2879 29.1523 28.5664L26.3528 26.3561C26.5863 26.0054 26.7236 25.5996 26.7509 25.1792C26.7783 24.7588 26.6948 24.3386 26.5088 23.9606C26.3228 23.5826 26.0407 23.2601 25.6909 23.0254C25.3411 22.7906 24.9358 22.6519 24.5155 22.623C24.0952 22.5941 23.6747 22.676 23.2961 22.8607C22.9174 23.0453 22.5939 23.3262 22.3579 23.6751C22.1219 24.0241 21.9816 24.4289 21.9512 24.8491C21.9208 25.2693 22.0012 25.6901 22.1845 26.0694L18.703 29.1638C18.6372 29.1239 18.5695 29.0872 18.5002 29.0538V19.875C18.5003 19.6927 18.5728 19.518 18.7017 19.3891C18.8306 19.2602 19.0054 19.1877 19.1877 19.1875H53.5627C53.7449 19.1877 53.9197 19.2602 54.0486 19.3891C54.1775 19.518 54.25 19.6927 54.2502 19.875V45.3125ZM25.0727 25.76C24.9285 25.9044 24.7447 26.0027 24.5447 26.0426C24.3446 26.0825 24.1372 26.0621 23.9487 25.9841C23.7601 25.9061 23.599 25.7739 23.4856 25.6043C23.3723 25.4347 23.3118 25.2353 23.3118 25.0312C23.3118 24.8272 23.3723 24.6278 23.4856 24.4582C23.599 24.2886 23.7601 24.1564 23.9487 24.0784C24.1372 24.0004 24.3446 23.98 24.5447 24.0199C24.7447 24.0598 24.9285 24.1581 25.0727 24.3025C25.2654 24.496 25.3737 24.7581 25.3737 25.0312C25.3737 25.3044 25.2654 25.5665 25.0727 25.76ZM31.2602 31.26C31.116 31.4044 30.9322 31.5027 30.7322 31.5426C30.5321 31.5825 30.3247 31.5621 30.1362 31.4841C29.9476 31.4061 29.7865 31.2739 29.6731 31.1043C29.5598 30.9347 29.4993 30.7353 29.4993 30.5312C29.4993 30.3272 29.5598 30.1278 29.6731 29.9582C29.7865 29.7886 29.9476 29.6564 30.1362 29.5784C30.3247 29.5004 30.5321 29.48 30.7322 29.5199C30.9322 29.5598 31.116 29.6581 31.2602 29.8025C31.4529 29.996 31.5612 30.2581 31.5612 30.5312C31.5612 30.8044 31.4529 31.0665 31.2602 31.26ZM37.3652 23.615C37.5093 23.4706 37.6931 23.3723 37.8932 23.3324C38.0932 23.2925 38.3007 23.3129 38.4892 23.3909C38.6777 23.4689 38.8388 23.6011 38.9522 23.7707C39.0656 23.9403 39.1261 24.1397 39.1261 24.3438C39.1261 24.5478 39.0656 24.7472 38.9522 24.9168C38.8388 25.0864 38.6777 25.2186 38.4892 25.2966C38.3007 25.3746 38.0932 25.395 37.8932 25.3551C37.6931 25.3152 37.5093 25.2169 37.3652 25.0725C37.1724 24.879 37.0641 24.6169 37.0641 24.3438C37.0641 24.0706 37.1724 23.8085 37.3652 23.615Z" fill="#B4FF5C"/>
</svg>
