<svg width="70" height="70" viewBox="0 0 70 70" fill="none" xmlns="http://www.w3.org/2000/svg">
<rect width="70" height="70" rx="12" fill="#0C0C0C"/>
<path d="M53.5625 14.375H16.4375C15.891 14.3766 15.3673 14.5945 14.9809 14.9809C14.5945 15.3673 14.3766 15.891 14.375 16.4375V45.3125C14.3766 45.859 14.5945 46.3827 14.9809 46.7691C15.3673 47.1555 15.891 47.3734 16.4375 47.375H39.125V52.1875C39.125 53.0992 39.4872 53.9735 40.1318 54.6182C40.7765 55.2628 41.6508 55.625 42.5625 55.625H52.1875C53.0992 55.625 53.9735 55.2628 54.6182 54.6182C55.2628 53.9735 55.625 53.0992 55.625 52.1875V16.4375C55.6234 15.891 55.4055 15.3673 55.0191 14.9809C54.6327 14.5945 54.109 14.3766 53.5625 14.375ZM54.25 52.1875C54.2484 52.734 54.0305 53.2577 53.6441 53.6441C53.2577 54.0305 52.734 54.2484 52.1875 54.25H42.5625C42.016 54.2484 41.4923 54.0305 41.1059 53.6441C40.7195 53.2577 40.5016 52.734 40.5 52.1875V51.5H54.25V52.1875ZM54.25 50.125H40.5V35H54.25V50.125ZM54.25 33.625H40.5V32.9375C40.5016 32.391 40.7195 31.8673 41.1059 31.4809C41.4923 31.0945 42.016 30.8766 42.5625 30.875H52.1875C52.734 30.8766 53.2577 31.0945 53.6441 31.4809C54.0305 31.8673 54.2484 32.391 54.25 32.9375V33.625ZM54.25 30.2081C53.6594 29.751 52.9343 29.5021 52.1875 29.5H42.5625C41.6508 29.5 40.7765 29.8622 40.1318 30.5068C39.4872 31.1515 39.125 32.0258 39.125 32.9375V46H16.4375C16.2552 46 16.0803 45.9276 15.9514 45.7986C15.8224 45.6697 15.75 45.4948 15.75 45.3125V21.25H54.25V30.2081ZM54.25 19.875H15.75V16.4375C15.75 16.2552 15.8224 16.0803 15.9514 15.9514C16.0803 15.8224 16.2552 15.75 16.4375 15.75H53.5625C53.7448 15.75 53.9197 15.8224 54.0486 15.9514C54.1776 16.0803 54.25 16.2552 54.25 16.4375V19.875Z" fill="#B4FF5C"/>
<path d="M18.5 17.125H17.8125C17.6302 17.125 17.4553 17.1974 17.3264 17.3264C17.1974 17.4553 17.125 17.6302 17.125 17.8125C17.125 17.9948 17.1974 18.1697 17.3264 18.2986C17.4553 18.4276 17.6302 18.5 17.8125 18.5H18.5C18.6823 18.5 18.8572 18.4276 18.9861 18.2986C19.1151 18.1697 19.1875 17.9948 19.1875 17.8125C19.1875 17.6302 19.1151 17.4553 18.9861 17.3264C18.8572 17.1974 18.6823 17.125 18.5 17.125ZM21.25 17.125H20.5625C20.3802 17.125 20.2053 17.1974 20.0764 17.3264C19.9474 17.4553 19.875 17.6302 19.875 17.8125C19.875 17.9948 19.9474 18.1697 20.0764 18.2986C20.2053 18.4276 20.3802 18.5 20.5625 18.5H21.25C21.4323 18.5 21.6072 18.4276 21.7361 18.2986C21.8651 18.1697 21.9375 17.9948 21.9375 17.8125C21.9375 17.6302 21.8651 17.4553 21.7361 17.3264C21.6072 17.1974 21.4323 17.125 21.25 17.125ZM24 17.125H23.3125C23.1302 17.125 22.9553 17.1974 22.8264 17.3264C22.6974 17.4553 22.625 17.6302 22.625 17.8125C22.625 17.9948 22.6974 18.1697 22.8264 18.2986C22.9553 18.4276 23.1302 18.5 23.3125 18.5H24C24.1823 18.5 24.3572 18.4276 24.4861 18.2986C24.6151 18.1697 24.6875 17.9948 24.6875 17.8125C24.6875 17.6302 24.6151 17.4553 24.4861 17.3264C24.3572 17.1974 24.1823 17.125 24 17.125ZM37.0625 25.375H17.8125C17.6302 25.375 17.4553 25.4474 17.3264 25.5764C17.1974 25.7053 17.125 25.8802 17.125 26.0625V41.1875C17.125 41.3698 17.1974 41.5447 17.3264 41.6736C17.4553 41.8026 17.6302 41.875 17.8125 41.875H37.0625C37.2448 41.875 37.4197 41.8026 37.5486 41.6736C37.6776 41.5447 37.75 41.3698 37.75 41.1875V26.0625C37.75 25.8802 37.6776 25.7053 37.5486 25.5764C37.4197 25.4474 37.2448 25.375 37.0625 25.375ZM19.05 40.5L24.6875 31.4869L30.325 40.5H19.05ZM31.9406 40.5L30.4419 38.0938L32.25 35.5088L35.7425 40.5H31.9406ZM36.375 39.0081L32.8137 33.9206C32.7504 33.8299 32.6661 33.7557 32.5679 33.7045C32.4698 33.6534 32.3607 33.6266 32.25 33.6266C32.1393 33.6266 32.0302 33.6534 31.9321 33.7045C31.8339 33.7557 31.7496 33.8299 31.6863 33.9206L29.6512 36.8288L25.2719 29.8231C25.2051 29.7306 25.1173 29.6552 25.0157 29.6032C24.9141 29.5512 24.8016 29.5241 24.6875 29.5241C24.5734 29.5241 24.4609 29.5512 24.3593 29.6032C24.2577 29.6552 24.1699 29.7306 24.1031 29.8231L18.5 38.7881V26.75H36.375V39.0081Z" fill="#B4FF5C"/>
<path d="M30.1875 32.25C30.5954 32.25 30.9942 32.129 31.3334 31.9024C31.6725 31.6758 31.9369 31.3537 32.093 30.9768C32.2491 30.5999 32.29 30.1852 32.2104 29.7851C32.1308 29.385 31.9344 29.0175 31.6459 28.7291C31.3575 28.4406 30.99 28.2442 30.5899 28.1646C30.1898 28.085 29.7751 28.1259 29.3982 28.282C29.0213 28.4381 28.6992 28.7025 28.4726 29.0416C28.246 29.3808 28.125 29.7796 28.125 30.1875C28.125 30.7345 28.3423 31.2591 28.7291 31.6459C29.1159 32.0327 29.6405 32.25 30.1875 32.25ZM30.1875 29.5C30.3235 29.5 30.4564 29.5403 30.5695 29.6159C30.6825 29.6914 30.7706 29.7988 30.8227 29.9244C30.8747 30.05 30.8883 30.1883 30.8618 30.3216C30.8353 30.455 30.7698 30.5775 30.6736 30.6736C30.5775 30.7698 30.455 30.8353 30.3216 30.8618C30.1883 30.8883 30.05 30.8747 29.9244 30.8227C29.7988 30.7706 29.6914 30.6825 29.6159 30.5695C29.5403 30.4564 29.5 30.3235 29.5 30.1875C29.5 30.0052 29.5724 29.8303 29.7014 29.7014C29.8303 29.5724 30.0052 29.5 30.1875 29.5ZM52.1875 17.125H28.125C27.9427 17.125 27.7678 17.1974 27.6389 17.3264C27.5099 17.4553 27.4375 17.6302 27.4375 17.8125C27.4375 17.9948 27.5099 18.1697 27.6389 18.2986C27.7678 18.4276 27.9427 18.5 28.125 18.5H52.1875C52.3698 18.5 52.5447 18.4276 52.6736 18.2986C52.8026 18.1697 52.875 17.9948 52.875 17.8125C52.875 17.6302 52.8026 17.4553 52.6736 17.3264C52.5447 17.1974 52.3698 17.125 52.1875 17.125ZM48.0625 52.1875H46.6875C46.5052 52.1875 46.3303 52.2599 46.2014 52.3889C46.0724 52.5178 46 52.6927 46 52.875C46 53.0573 46.0724 53.2322 46.2014 53.3611C46.3303 53.4901 46.5052 53.5625 46.6875 53.5625H48.0625C48.2448 53.5625 48.4197 53.4901 48.5486 53.3611C48.6776 53.2322 48.75 53.0573 48.75 52.875C48.75 52.6927 48.6776 52.5178 48.5486 52.3889C48.4197 52.2599 48.2448 52.1875 48.0625 52.1875ZM48.0625 31.5625H46.6875C46.5052 31.5625 46.3303 31.6349 46.2014 31.7639C46.0724 31.8928 46 32.0677 46 32.25C46 32.4323 46.0724 32.6072 46.2014 32.7361C46.3303 32.8651 46.5052 32.9375 46.6875 32.9375H48.0625C48.2448 32.9375 48.4197 32.8651 48.5486 32.7361C48.6776 32.6072 48.75 32.4323 48.75 32.25C48.75 32.0677 48.6776 31.8928 48.5486 31.7639C48.4197 31.6349 48.2448 31.5625 48.0625 31.5625ZM45.1111 39.3264C44.9821 39.1975 44.8073 39.1251 44.625 39.1251C44.4427 39.1251 44.2679 39.1975 44.1389 39.3264L41.3889 42.0764C41.2601 42.2054 41.1876 42.3802 41.1876 42.5625C41.1876 42.7448 41.2601 42.9196 41.3889 43.0486L44.1389 45.7986C44.2686 45.9238 44.4423 45.9931 44.6225 45.9915C44.8028 45.99 44.9752 45.9177 45.1027 45.7902C45.2302 45.6627 45.3025 45.4903 45.304 45.31C45.3056 45.1298 45.2363 44.9561 45.1111 44.8264L42.8471 42.5625L45.1111 40.2986C45.24 40.1696 45.3124 39.9948 45.3124 39.8125C45.3124 39.6302 45.24 39.4554 45.1111 39.3264ZM53.3611 42.0764L50.6111 39.3264C50.4814 39.2012 50.3077 39.1319 50.1275 39.1335C49.9472 39.135 49.7748 39.2073 49.6473 39.3348C49.5198 39.4623 49.4475 39.6347 49.446 39.815C49.4444 39.9952 49.5137 40.1689 49.6389 40.2986L51.9029 42.5625L49.6389 44.8264C49.5733 44.8899 49.5209 44.9657 49.4849 45.0496C49.4488 45.1335 49.4299 45.2237 49.4291 45.315C49.4283 45.4063 49.4457 45.4968 49.4802 45.5813C49.5148 45.6658 49.5659 45.7425 49.6304 45.8071C49.695 45.8716 49.7717 45.9227 49.8562 45.9573C49.9407 45.9918 50.0312 46.0092 50.1225 46.0084C50.2138 46.0076 50.304 45.9887 50.3879 45.9526C50.4718 45.9166 50.5476 45.8642 50.6111 45.7986L53.3611 43.0486C53.49 42.9196 53.5624 42.7448 53.5624 42.5625C53.5624 42.3802 53.49 42.2054 53.3611 42.0764ZM48.9384 37.0893C48.7631 37.0393 48.5752 37.0608 48.4159 37.1492C48.2565 37.2377 48.1388 37.3858 48.0886 37.5609L45.3386 47.1859C45.3139 47.2728 45.3065 47.3637 45.3168 47.4534C45.3272 47.5431 45.3551 47.6299 45.3991 47.7088C45.443 47.7877 45.502 47.8572 45.5728 47.9133C45.6436 47.9694 45.7248 48.011 45.8116 48.0357C45.8728 48.0537 45.9362 48.0627 46 48.0625C46.1493 48.0624 46.2945 48.0138 46.4137 47.9238C46.5329 47.8339 46.6196 47.7076 46.6607 47.5641L49.4107 37.9391C49.4607 37.7637 49.4391 37.5757 49.3505 37.4164C49.2619 37.257 49.1137 37.1394 48.9384 37.0893Z" fill="#B4FF5C"/>
</svg>
