<svg width="70" height="70" viewBox="0 0 70 70" fill="none" xmlns="http://www.w3.org/2000/svg">
<rect width="70" height="70" rx="12" fill="#0C0C0C"/>
<g clip-path="url(#clip0_12_1838)">
<path d="M52.8427 41.5326C53.2844 41.1469 53.6386 40.6712 53.8813 40.1374C54.124 39.6035 54.2497 39.0239 54.25 38.4375C54.25 36.1626 52.3999 34.3125 50.125 34.3125C47.8501 34.3125 46 36.1626 46 38.4375C46.0006 39.17 46.1963 39.889 46.5669 40.5208C46.9375 41.1527 47.4696 41.6744 48.1086 42.0324C46.7453 42.9069 45.7903 44.3823 45.6494 46.088L45.3723 49.4375H41.875C40.7379 49.4375 39.8125 50.3629 39.8125 51.5C39.8125 52.6371 40.7379 53.5625 41.875 53.5625H44.625V56.3125H56.3125V46.5287C56.3125 44.2428 54.8667 42.293 52.8427 41.5326ZM50.125 35.6875C51.6416 35.6875 52.875 36.9209 52.875 38.4375C52.875 39.9541 51.6416 41.1875 50.125 41.1875C48.6084 41.1875 47.375 39.9541 47.375 38.4375C47.375 36.9209 48.6084 35.6875 50.125 35.6875ZM54.9375 54.9375H46V53.5625H46.2386C47.0975 53.5665 47.9264 53.2472 48.5606 52.668C49.1949 52.0888 49.5879 51.2922 49.6616 50.4364L50.1216 45.3751L48.7521 45.2506L48.2921 50.312C48.2479 50.8254 48.0121 51.3033 47.6317 51.6508C47.2512 51.9983 46.7538 52.1899 46.2386 52.1875H41.875C41.4962 52.1875 41.1875 51.8788 41.1875 51.5C41.1875 51.1212 41.4962 50.8125 41.875 50.8125H45.3723C45.7167 50.8137 46.0489 50.6851 46.3027 50.4523C46.5565 50.2195 46.7133 49.8996 46.7418 49.5564L47.0196 46.2014C47.1887 44.1609 48.9239 42.5625 50.9713 42.5625C52.0228 42.5638 53.0309 42.982 53.7744 43.7256C54.518 44.4691 54.9362 45.4772 54.9375 46.5287V54.9375ZM28.125 49.4375L24.6284 49.443L24.3506 46.088C24.209 44.3823 23.2541 42.9069 21.8914 42.0324C22.5304 41.6744 23.0625 41.1527 23.4331 40.5208C23.8037 39.889 23.9994 39.17 24 38.4375C24 36.1626 22.1499 34.3125 19.875 34.3125C17.6001 34.3125 15.75 36.1626 15.75 38.4375C15.7503 39.0239 15.876 39.6035 16.1187 40.1374C16.3614 40.6712 16.7156 41.1469 17.1573 41.5326C15.1333 42.293 13.6875 44.2428 13.6875 46.5287V56.3125H25.375V53.5625H28.125C29.2621 53.5625 30.1875 52.6371 30.1875 51.5C30.1875 50.3629 29.2621 49.4375 28.125 49.4375ZM19.875 35.6875C21.3916 35.6875 22.625 36.9209 22.625 38.4375C22.625 39.9541 21.3916 41.1875 19.875 41.1875C18.3584 41.1875 17.125 39.9541 17.125 38.4375C17.125 36.9209 18.3584 35.6875 19.875 35.6875ZM28.125 52.1875H23.7614C23.2462 52.1899 22.7488 51.9983 22.3683 51.6508C21.9879 51.3033 21.7521 50.8254 21.7079 50.312L21.2479 45.2506L19.8784 45.3751L20.3384 50.4364C20.4121 51.2922 20.8051 52.0888 21.4394 52.668C22.0736 53.2472 22.9025 53.5665 23.7614 53.5625H24V54.9375H15.0625V46.5287C15.0638 45.4772 15.482 44.4691 16.2256 43.7256C16.9691 42.982 17.9772 42.5638 19.0287 42.5625C21.0761 42.5625 22.812 44.1609 22.9811 46.2014L23.2589 49.5619C23.2884 49.9042 23.4456 50.2228 23.6991 50.4544C23.9527 50.6861 24.2842 50.8139 24.6277 50.8125H28.125C28.5038 50.8125 28.8125 51.1212 28.8125 51.5C28.8125 51.8788 28.5038 52.1875 28.125 52.1875ZM41.2487 38.5516C41.3202 38.3956 41.3862 38.2388 41.4453 38.0807L43.25 37.5871V33.7879L41.4453 33.2943C41.3856 33.135 41.32 32.9779 41.2487 32.8234L42.1768 31.1968L41.0858 30.1057C41.1463 29.9132 41.1875 29.7124 41.1875 29.5C41.1875 28.7204 40.7475 28.048 40.1074 27.6981L41.7856 24.3417C42.1605 23.587 42.4042 22.774 42.5061 21.9375H43.5484L46 26.024L48.2681 22.2428C48.3393 22.1253 48.447 22.0343 48.5747 21.9837C48.7025 21.933 48.8432 21.9255 48.9756 21.9623C49.108 21.999 49.2248 22.078 49.3082 22.1872C49.3915 22.2964 49.437 22.4299 49.4375 22.5673V27.4375H50.8125V22.5673C50.8118 22.0358 50.6003 21.5263 50.2245 21.1505C49.8487 20.7747 49.3392 20.5632 48.8078 20.5625C48.4618 20.5634 48.1218 20.6534 47.8208 20.8239C47.5197 20.9945 47.2677 21.2397 47.089 21.536L46 23.351L44.3266 20.5625H42.5378C42.2854 16.7304 39.0954 13.6875 35.2008 13.6875H34.7992C30.9046 13.6875 27.7146 16.7304 27.4622 20.5625H25.6734L24 23.351L22.911 21.536C22.7322 21.2398 22.4802 20.9946 22.1791 20.8241C21.8781 20.6536 21.5382 20.5635 21.1923 20.5625C20.6608 20.5632 20.1513 20.7747 19.7755 21.1505C19.3997 21.5263 19.1882 22.0358 19.1875 22.5673V27.4375H20.5625V22.5673C20.5632 22.4299 20.6087 22.2966 20.6921 22.1875C20.7756 22.0784 20.8923 21.9995 21.0247 21.9629C21.1571 21.9262 21.2978 21.9338 21.4254 21.9844C21.5531 22.0351 21.6607 22.126 21.7319 22.2434L24 26.024L26.4516 21.9375H27.4939C27.5956 22.774 27.8393 23.5871 28.2144 24.3417L29.8926 27.6981C29.5671 27.8735 29.2949 28.1334 29.1049 28.4506C28.9148 28.7677 28.8138 29.1303 28.8125 29.5C28.8125 29.7124 28.8538 29.9132 28.9143 30.1064L27.8232 31.1974L28.7513 32.8241C28.6798 32.9801 28.6138 33.1369 28.5547 33.295L26.75 33.7879V37.5871L28.5547 38.08C28.6138 38.2381 28.6798 38.3949 28.7513 38.5509L27.8232 40.1776L30.5099 42.8643L32.1366 41.9362C32.2926 42.0077 32.4494 42.0737 32.6075 42.1328L33.1004 43.9375H36.8996L37.3925 42.1328C37.5506 42.0737 37.7074 42.0077 37.8634 41.9362L39.4901 42.8643L42.1768 40.1776L41.2487 38.5516ZM37.75 35.6875C37.75 37.2041 36.5166 38.4375 35 38.4375C34.5715 38.437 34.149 38.3364 33.7662 38.1439C33.3834 37.9513 33.0508 37.672 32.795 37.3282C32.5391 36.9845 32.3671 36.5857 32.2925 36.1637C32.218 35.7417 32.243 35.3082 32.3655 34.8976C33.1472 35.4133 34.0631 35.6883 34.9997 35.6883C35.9362 35.6883 36.8521 35.4133 37.6338 34.8976C37.7101 35.1519 37.75 35.4173 37.75 35.6875ZM30.875 28.8125H39.125C39.5038 28.8125 39.8125 29.1212 39.8125 29.5C39.8125 29.8788 39.5038 30.1875 39.125 30.1875H30.875C30.4962 30.1875 30.1875 29.8788 30.1875 29.5C30.1875 29.1212 30.4962 28.8125 30.875 28.8125ZM35 34.3125C34.208 34.3112 33.4407 34.037 32.8272 33.5361C32.2137 33.0352 31.7916 32.3382 31.6319 31.5625H38.3681C38.2084 32.3382 37.7863 33.0352 37.1728 33.5361C36.5593 34.037 35.792 34.3112 35 34.3125ZM28.8125 21.0493C28.8125 17.7479 31.4979 15.0625 34.7992 15.0625H35.2008C38.5021 15.0625 41.1875 17.7479 41.1875 21.0493C41.1862 21.9786 40.97 22.8951 40.5557 23.7271L38.7001 27.4375H35.6875V23.9024C36.87 23.5951 37.75 22.5274 37.75 21.25C37.75 19.7334 36.5166 18.5 35 18.5C33.4834 18.5 32.25 19.7334 32.25 21.25C32.25 22.5274 33.13 23.5951 34.3125 23.9024V27.4375H31.2999L29.4443 23.7271C29.03 22.8951 28.8138 21.9786 28.8125 21.0493ZM35 22.625C34.2417 22.625 33.625 22.0083 33.625 21.25C33.625 20.4917 34.2417 19.875 35 19.875C35.7583 19.875 36.375 20.4917 36.375 21.25C36.375 22.0083 35.7583 22.625 35 22.625ZM39.2598 41.1504L37.8992 40.3742L37.5651 40.5502C37.2564 40.7131 36.9394 40.8458 36.6225 40.9434L36.2616 41.0548L35.8504 42.5625H34.1496L33.7371 41.0548L33.3761 40.9434C33.0502 40.842 32.7344 40.7103 32.4329 40.5502L32.0994 40.3742L30.7396 41.1497L29.5364 39.9473L30.3126 38.5867L30.1366 38.2526C29.9765 37.9513 29.8449 37.6357 29.7434 37.31L29.632 36.9491L28.125 36.5379V34.8371L29.6327 34.4246L29.7441 34.0636C29.8417 33.7474 29.9737 33.4298 30.1373 33.1204L30.3133 32.7869L29.5378 31.4271L29.7441 31.2208C29.8912 31.3178 30.0548 31.3899 30.2253 31.447C30.3328 32.3543 30.6975 33.2119 31.2765 33.9186C31.0127 34.471 30.8755 35.0753 30.875 35.6875C30.875 37.9624 32.7251 39.8125 35 39.8125C37.2749 39.8125 39.125 37.9624 39.125 35.6875C39.1247 35.0755 38.9875 34.4714 38.7235 33.9193C39.3026 33.2125 39.6675 32.355 39.7754 31.4477C39.9449 31.3933 40.1066 31.3173 40.2566 31.2215L40.4629 31.4277L39.6874 32.7876L39.8634 33.1211C40.0263 33.4304 40.159 33.7474 40.2566 34.0643L40.368 34.4252L41.8757 34.8377V36.5386L40.368 36.9504L40.2566 37.3114C40.159 37.6276 40.027 37.9446 39.8634 38.2539L39.6874 38.5881L40.4636 39.9486L39.2598 41.1504ZM49.4375 31.5625H50.8125V32.9375H49.4375V31.5625Z" fill="#B4FF5C"/>
<path d="M49.4375 28.8125H50.8125V30.1875H49.4375V28.8125ZM19.1875 31.5625H20.5625V32.9375H19.1875V31.5625ZM19.1875 28.8125H20.5625V30.1875H19.1875V28.8125Z" fill="#B4FF5C"/>
</g>
<defs>
<clipPath id="clip0_12_1838">
<rect width="44" height="44" fill="white" transform="translate(13 13)"/>
</clipPath>
</defs>
</svg>
