<svg width="70" height="70" viewBox="0 0 70 70" fill="none" xmlns="http://www.w3.org/2000/svg">
<rect width="70" height="70" rx="12" fill="#0C0C0C"/>
<path d="M22.0718 42.3187C22.0718 42.1684 22.1315 42.0242 22.2378 41.918C22.3441 41.8117 22.4882 41.752 22.6386 41.752H36.3409C36.4912 41.752 36.6353 41.8117 36.7416 41.918C36.8479 42.0242 36.9076 42.1684 36.9076 42.3187C36.9076 42.469 36.8479 42.6132 36.7416 42.7195C36.6353 42.8258 36.4912 42.8855 36.3409 42.8855H22.6386C22.4882 42.8855 22.3441 42.8258 22.2378 42.7195C22.1315 42.6132 22.0718 42.469 22.0718 42.3187ZM22.6386 38.6836H32.6485C32.7988 38.6836 32.9429 38.6239 33.0492 38.5176C33.1555 38.4114 33.2152 38.2672 33.2152 38.1169C33.2152 37.9666 33.1555 37.8224 33.0492 37.7161C32.9429 37.6098 32.7988 37.5501 32.6485 37.5501H22.6386C22.4882 37.5501 22.3441 37.6098 22.2378 37.7161C22.1315 37.8224 22.0718 37.9666 22.0718 38.1169C22.0718 38.2672 22.1315 38.4114 22.2378 38.5176C22.3441 38.6239 22.4882 38.6836 22.6386 38.6836ZM45.8372 46.9622V53.6873C45.8372 54.4113 45.2482 55.0003 44.5242 55.0003H35.491C34.767 55.0003 34.178 54.4113 34.178 53.6873V49.5807C32.6741 49.9301 31.1007 50.1074 29.4897 50.1074C28.8219 50.1074 28.1507 50.0761 27.4913 50.0144L20.4911 54.8984C20.3971 54.9641 20.2854 54.9996 20.1708 55.0004C20.0562 55.0012 19.9441 54.9673 19.8492 54.903C19.7543 54.8387 19.6811 54.7472 19.6392 54.6406C19.5974 54.5339 19.5888 54.4171 19.6147 54.3054L21.02 48.2514C17.2418 46.3979 15.0015 43.4208 15.0015 40.2178C15.0015 38.0212 16.0249 35.9449 17.961 34.2134C19.8134 32.5569 22.334 31.3615 25.2505 30.7565C25.3975 30.7266 25.5503 30.7561 25.6756 30.8386C25.8008 30.9211 25.8882 31.0499 25.9187 31.1967C25.9492 31.3436 25.9202 31.4965 25.8381 31.622C25.756 31.7476 25.6276 31.8354 25.4808 31.8664C22.7984 32.4228 20.3961 33.5564 18.7167 35.0583C17.0277 36.5687 16.135 38.3528 16.135 40.2178C16.135 43.081 18.294 45.7728 21.9103 47.4183C22.0294 47.4725 22.1261 47.5663 22.1839 47.6837C22.2418 47.8011 22.2572 47.9349 22.2276 48.0623L21.0525 53.1244L27.0144 48.9649C27.1261 48.8871 27.2619 48.852 27.3973 48.8659C28.0925 48.9378 28.7909 48.9738 29.4897 48.9737C31.1065 48.9737 32.6812 48.7854 34.178 48.4147V46.9622C34.178 46.2382 34.767 45.6492 35.491 45.6492H39.9461C41.8166 44.104 42.8444 42.1817 42.8444 40.2177C42.8444 38.1192 41.6817 36.0849 39.5703 34.4894C39.5101 34.4449 39.4593 34.3888 39.4209 34.3245C39.3825 34.2602 39.3572 34.1889 39.3465 34.1148C39.3358 34.0406 39.3399 33.9651 39.3586 33.8925C39.3772 33.82 39.4101 33.7519 39.4552 33.6921C39.5004 33.6324 39.557 33.5821 39.6217 33.5444C39.6863 33.5066 39.7579 33.482 39.8321 33.4721C39.9064 33.4621 39.9819 33.467 40.0542 33.4864C40.1266 33.5058 40.1944 33.5393 40.2537 33.5851C42.6553 35.3999 43.978 37.7554 43.978 40.2177C43.978 42.1604 43.1468 44.0482 41.6112 45.6492H44.5242C45.2482 45.6492 45.8372 46.2382 45.8372 46.9622ZM44.7037 46.9622C44.7037 46.865 44.6215 46.7828 44.5242 46.7828H35.491C35.3937 46.7828 35.3115 46.865 35.3115 46.9622V53.6873C35.3115 53.7846 35.3937 53.8667 35.491 53.8667H44.5242C44.6215 53.8667 44.7037 53.7846 44.7037 53.6873V46.9622ZM42.1914 50.3247C42.1914 50.4242 42.1653 50.5219 42.1155 50.6081C42.0658 50.6942 41.9942 50.7658 41.908 50.8155L38.6739 52.6827C38.5878 52.7324 38.49 52.7586 38.3905 52.7586C38.2911 52.7586 38.1933 52.7324 38.1072 52.6827C38.021 52.6329 37.9495 52.5614 37.8997 52.4753C37.85 52.3891 37.8238 52.2914 37.8238 52.1919V48.4574C37.8237 48.3579 37.8499 48.2602 37.8997 48.174C37.9494 48.0879 38.021 48.0163 38.1071 47.9666C38.1933 47.9168 38.291 47.8906 38.3905 47.8906C38.49 47.8906 38.5878 47.9169 38.6739 47.9666L41.908 49.8339C41.9942 49.8836 42.0658 49.9552 42.1155 50.0413C42.1652 50.1275 42.1914 50.2252 42.1914 50.3247ZM40.4911 50.3247L38.9573 49.4392V51.2102L40.4911 50.3247ZM51.3 20.9264C51.3994 20.9265 51.497 20.9002 51.5829 20.8504L53.7718 19.5867C53.8368 19.5497 53.8939 19.5003 53.9396 19.4412C53.9854 19.3822 54.0191 19.3146 54.0387 19.2425C54.0583 19.1704 54.0634 19.0951 54.0538 19.0209C54.0441 18.9468 54.0199 18.8753 53.9825 18.8106C53.9452 18.7459 53.8954 18.6892 53.836 18.6438C53.7766 18.5984 53.7088 18.5652 53.6366 18.5461C53.5643 18.5269 53.489 18.5223 53.4149 18.5325C53.3409 18.5426 53.2696 18.5673 53.2051 18.6051L51.0161 19.8688C50.908 19.9312 50.8235 20.0275 50.7758 20.1428C50.728 20.2582 50.7197 20.386 50.752 20.5066C50.7844 20.6272 50.8556 20.7337 50.9547 20.8096C51.0538 20.8855 51.1752 20.9266 51.3 20.9264ZM47.6516 18.3694C47.716 18.4066 47.7872 18.4308 47.861 18.4406C47.9348 18.4503 48.0098 18.4454 48.0817 18.4261C48.1536 18.4069 48.221 18.3736 48.28 18.3283C48.3391 18.2829 48.3886 18.2264 48.4258 18.1619L49.7589 15.8529C49.7967 15.7884 49.8214 15.7171 49.8315 15.6431C49.8416 15.569 49.837 15.4937 49.8179 15.4214C49.7988 15.3491 49.7656 15.2814 49.7202 15.222C49.6748 15.1626 49.6181 15.1128 49.5533 15.0754C49.4886 15.0381 49.4171 15.0139 49.343 15.0042C49.2689 14.9946 49.1936 14.9997 49.1215 15.0193C49.0493 15.0389 48.9818 15.0726 48.9227 15.1183C48.8636 15.1641 48.8142 15.2212 48.7773 15.2862L47.4441 17.5952C47.369 17.7253 47.3486 17.88 47.3875 18.0252C47.4264 18.1704 47.5214 18.2942 47.6516 18.3694ZM51.1992 24.5139C51.1992 24.6642 51.2589 24.8084 51.3652 24.9147C51.4715 25.021 51.6157 25.0807 51.766 25.0807H54.4322C54.5825 25.0807 54.7267 25.021 54.833 24.9147C54.9393 24.8084 54.999 24.6642 54.999 24.5139C54.999 24.3636 54.9393 24.2194 54.833 24.1132C54.7267 24.0069 54.5825 23.9472 54.4322 23.9472H51.766C51.6157 23.9472 51.4715 24.0069 51.3652 24.1132C51.2589 24.2194 51.1992 24.3636 51.1992 24.5139ZM27.1873 30.7339C27.4887 29.6091 28.2066 28.671 29.209 28.0923L32.1735 26.3808C32.238 26.3435 32.3091 26.3193 32.3829 26.3096C32.4567 26.2999 32.5317 26.3048 32.6036 26.3241C32.6603 26.3394 32.7143 26.3635 32.7637 26.3953C35.8103 24.1152 38.2126 21.4756 39.5888 18.8919L39.5366 18.8016C38.8944 17.6893 39.2769 16.2619 40.3892 15.6196C41.5017 14.9774 42.929 15.3599 43.5713 16.4721L45.884 20.4779C47.1124 19.8424 48.641 20.281 49.3396 21.4911C50.0382 22.7012 49.6537 24.244 48.4893 24.9903L50.802 28.9961C51.1122 29.5333 51.194 30.1608 51.0327 30.7632C50.8712 31.3655 50.4865 31.868 49.9493 32.1782C49.5977 32.3822 49.1985 32.4896 48.7921 32.4898C48.5888 32.4898 48.3842 32.463 48.1823 32.4089C47.58 32.2475 47.0774 31.8628 46.7673 31.3256L46.7152 31.2354C43.8153 31.1361 40.3629 31.8827 36.8955 33.3554L40.9877 38.8637C41.3961 39.4135 41.3244 40.1725 40.821 40.6294L39.9207 41.4463C39.7844 41.5698 39.6238 41.6635 39.4492 41.7215C39.2746 41.7794 39.0898 41.8004 38.9067 41.783C38.7261 41.7655 38.5512 41.7106 38.393 41.6217C38.2349 41.5327 38.097 41.4118 37.9882 41.2666L33.707 35.5379L33.5576 35.6242C32.8914 36.0087 32.1505 36.2053 31.3983 36.2053C31.0136 36.2049 30.6306 36.1541 30.2591 36.0542C29.1342 35.7528 28.1961 35.0348 27.6174 34.0325C27.0387 33.0301 26.886 31.8587 27.1873 30.7339ZM40.0777 39.5396L36.0848 34.165L34.6955 34.9671L38.8963 40.5881C38.9102 40.6071 38.9281 40.6229 38.9487 40.6343C38.9693 40.6458 38.9921 40.6528 39.0156 40.6547C39.0463 40.6576 39.1055 40.6553 39.159 40.6068L40.0592 39.7899C40.1299 39.7257 40.1378 39.6204 40.0777 39.5396ZM46.4523 21.4623L47.921 24.006C48.5444 23.5739 48.7439 22.7264 48.3579 22.0579C47.972 21.3894 47.1382 21.1384 46.4523 21.4623ZM40.5183 18.2349L47.7489 30.7588C47.9077 31.0338 48.1657 31.2309 48.4757 31.3139C48.7855 31.3968 49.1075 31.3553 49.3826 31.1965C49.6575 31.0378 49.8547 30.7797 49.9378 30.4698C50.0207 30.16 49.979 29.8379 49.8204 29.5629L42.5896 17.039C42.3684 16.6558 41.9655 16.4413 41.552 16.4413C41.3492 16.4413 41.1439 16.4928 40.956 16.6013C40.6811 16.76 40.4839 17.0181 40.4009 17.328C40.3179 17.6378 40.3596 17.9599 40.5183 18.2349ZM33.3853 27.346L36.292 32.3806C39.6914 30.9161 43.1016 30.1198 46.0564 30.0943L40.2475 20.0328C38.7481 22.579 36.3533 25.1342 33.3853 27.346ZM28.599 33.4657C29.0263 34.2058 29.72 34.7362 30.5523 34.9592C31.3846 35.1822 32.2506 35.0697 32.9907 34.6424L35.4644 33.2143L32.2494 27.6457L29.7757 29.0739C29.0356 29.5011 28.5052 30.1949 28.2822 31.0272C28.0591 31.8595 28.1717 32.7256 28.599 33.4657ZM18.1108 21.5547C18.1108 19.6565 19.6551 18.1121 21.5534 18.1121C23.4516 18.1121 24.9959 19.6564 24.9959 21.5547C24.9959 23.4528 23.4516 24.9971 21.5534 24.9971C19.6551 24.9971 18.1108 23.4528 18.1108 21.5547ZM19.2444 21.5547C19.2444 22.8279 20.2802 23.8636 21.5534 23.8636C22.8266 23.8636 23.8624 22.8279 23.8624 21.5547C23.8624 20.2815 22.8266 19.2457 21.5534 19.2457C20.2802 19.2457 19.2444 20.2815 19.2444 21.5547ZM15.0015 22.1532V20.9562C15.0015 20.4268 15.432 19.9962 15.9613 19.9962C16.4301 19.9962 16.615 19.6379 16.6605 19.528C16.706 19.4181 16.8287 19.0339 16.4972 18.7025C16.4077 18.6135 16.3368 18.5078 16.2886 18.3913C16.2403 18.2748 16.2156 18.1498 16.216 18.0237C16.216 17.7673 16.3158 17.5262 16.4972 17.3449L17.3435 16.4985C17.7177 16.1242 18.3268 16.1242 18.7011 16.4985C19.0326 16.83 19.4168 16.7073 19.5266 16.6618C19.6365 16.6163 19.9948 16.4314 19.9948 15.9626C19.9948 15.4333 20.4254 15.0027 20.9547 15.0027H22.1517C22.681 15.0027 23.1116 15.4333 23.1116 15.9626C23.1116 16.4314 23.4699 16.6163 23.5798 16.6618C23.6896 16.7073 24.0739 16.8299 24.4053 16.4985C24.7796 16.1242 25.3886 16.1242 25.7629 16.4985L26.6093 17.3449C26.7906 17.5262 26.8904 17.7672 26.8904 18.0236C26.8904 18.2801 26.7906 18.5212 26.6092 18.7025C26.2778 19.0339 26.4005 19.4181 26.446 19.528C26.4915 19.6378 26.6764 19.9962 27.1452 19.9962C27.6744 19.9962 28.105 20.4268 28.105 20.9562V22.1532C28.105 22.6825 27.6744 23.113 27.1452 23.113C26.6764 23.113 26.4914 23.4714 26.446 23.5813C26.4005 23.6911 26.2778 24.0753 26.6093 24.4068C26.9836 24.7811 26.9836 25.3901 26.6093 25.7644L25.7629 26.6108C25.5817 26.7921 25.3406 26.892 25.0842 26.892C24.8277 26.892 24.5866 26.7922 24.4053 26.6108C24.0739 26.2794 23.6897 26.402 23.5798 26.4476C23.47 26.4931 23.1116 26.6779 23.1116 27.1468C23.1116 27.6761 22.681 28.1066 22.1517 28.1066H20.9549C20.4256 28.1066 19.995 27.6761 19.995 27.1468C19.995 26.6769 19.6369 26.4921 19.5272 26.4467C19.4173 26.4012 19.0334 26.2786 18.7012 26.6109C18.52 26.7922 18.2789 26.8921 18.0225 26.8921C17.7661 26.8921 17.5249 26.7922 17.3437 26.6109L16.4973 25.7645C16.4079 25.6756 16.337 25.5698 16.2887 25.4533C16.2404 25.3368 16.2158 25.2118 16.2161 25.0857C16.2161 24.8293 16.316 24.5882 16.4973 24.4069C16.8288 24.0754 16.7061 23.6912 16.6606 23.5814C16.615 23.4716 16.4302 23.1132 15.9614 23.1132C15.432 23.113 15.0015 22.6825 15.0015 22.1532ZM16.135 21.987C16.8387 22.0483 17.4318 22.4812 17.7078 23.1475C17.9838 23.8139 17.8704 24.5394 17.4161 25.0804L18.0277 25.6919C18.569 25.2371 19.2947 25.1235 19.9608 25.3994C20.627 25.6753 21.0597 26.2688 21.1209 26.9732H21.9856C22.0469 26.2695 22.4798 25.6764 23.1461 25.4003C23.8124 25.1245 24.538 25.2377 25.079 25.6919L25.6905 25.0804C25.2362 24.5394 25.1229 23.8139 25.3989 23.1475C25.6749 22.4812 26.268 22.0483 26.9717 21.987V21.1223C26.268 21.061 25.6748 20.6282 25.3989 19.9618C25.1229 19.2955 25.2362 18.57 25.6904 18.029L25.0789 17.4174C24.5378 17.8717 23.8123 17.9849 23.1461 17.709C22.4798 17.433 22.0469 16.8399 21.9856 16.1362H21.1209C21.0596 16.8399 20.6268 17.4331 19.9605 17.709C19.2942 17.985 18.5686 17.8717 18.0277 17.4174L17.4161 18.0289C17.8704 18.57 17.9837 19.2955 17.7077 19.9617C17.4318 20.6282 16.8387 21.061 16.135 21.1223V21.987ZM54.9544 37.0557C54.7544 38.734 53.9474 40.3306 53.4841 41.1329C53.0208 41.9352 52.0417 43.4323 50.6884 44.4447C49.811 45.1011 48.9274 45.4313 48.0712 45.4313C47.4734 45.4313 46.8888 45.2704 46.3289 44.9471L46.1254 44.8295C45.79 44.6359 45.5501 44.3228 45.4495 43.9477C45.3491 43.5727 45.4003 43.1815 45.5939 42.8462L46.4077 41.4367C46.8079 40.7434 47.6976 40.505 48.391 40.9052L48.8683 41.1808C49.0036 41.259 49.1638 41.2326 49.2669 41.1151C49.712 40.6076 50.122 40.0311 50.4854 39.4016C50.8489 38.7721 51.1432 38.1287 51.3601 37.4896C51.4103 37.3416 51.3531 37.1896 51.2178 37.1115L50.7405 36.836C50.4051 36.6424 50.1652 36.3292 50.0646 35.9542C49.9641 35.5791 50.0154 35.1879 50.209 34.8526L51.0228 33.4431C51.4229 32.7498 52.3127 32.5115 53.0061 32.9116L53.2097 33.0292C54.5715 33.8154 55.1748 35.2077 54.9544 37.0557ZM52.6429 34.0108L52.4394 33.8933C52.3662 33.8511 52.2794 33.8398 52.1979 33.8616C52.1163 33.8835 52.0468 33.9367 52.0045 34.0098L51.1907 35.4193C51.1698 35.4555 51.1563 35.4954 51.151 35.5369C51.1456 35.5783 51.1486 35.6204 51.1596 35.6607C51.1702 35.7011 51.1887 35.739 51.2141 35.7722C51.2394 35.8054 51.2711 35.8333 51.3073 35.8542L51.7847 36.1297C52.3922 36.4805 52.659 37.1895 52.4335 37.8538C52.1928 38.5631 51.8677 39.2745 51.4671 39.9683C51.0667 40.6619 50.6131 41.2992 50.1192 41.8625C49.6566 42.3901 48.9092 42.5133 48.3017 42.1625L47.8243 41.887C47.7511 41.8449 47.6643 41.8335 47.5827 41.8553C47.5012 41.8772 47.4316 41.9305 47.3893 42.0035L46.5755 43.4131C46.5546 43.4492 46.5411 43.4892 46.5358 43.5306C46.5305 43.5721 46.5334 43.6141 46.5444 43.6544C46.555 43.6948 46.5735 43.7328 46.5989 43.766C46.6242 43.7992 46.6559 43.8271 46.6921 43.8479L46.8957 43.9655C47.8609 44.5227 48.8794 44.3826 50.0094 43.5371C51.2451 42.6127 52.1645 41.1515 52.5025 40.5661C52.8405 39.9808 53.6463 38.4539 53.8289 36.9216C53.996 35.5201 53.6081 34.568 52.6429 34.0108Z" fill="#B4FF5C"/>
</svg>
