<svg width="143" height="28" viewBox="0 0 143 28" fill="none" xmlns="http://www.w3.org/2000/svg">
<path d="M32.5256 22.9658C30.7838 22.9658 29.3149 22.5779 28.1143 21.7975C26.9137 21.017 26.0632 19.9399 25.5539 18.5662L28.5418 16.8136C29.233 18.6301 30.5928 19.5337 32.6211 19.5337C33.5671 19.5337 34.2765 19.3649 34.7495 19.0271C35.2225 18.6894 35.4589 18.2284 35.4589 17.6534C35.4589 17.0281 35.1815 16.5443 34.6221 16.202C34.0628 15.846 33.0668 15.4627 31.6343 15.0565C30.0789 14.5818 28.8556 14.0296 27.9597 13.4043C26.8455 12.5737 26.2861 11.3551 26.2861 9.744C26.2861 8.13291 26.85 6.83674 27.9824 5.90569C29.1148 4.93813 30.4928 4.45435 32.1118 4.45435C33.5307 4.45435 34.7904 4.80121 35.8864 5.49493C36.9824 6.18866 37.8374 7.17448 38.4468 8.44326L35.509 10.1456C34.7995 8.62126 33.6671 7.85907 32.1118 7.85907C31.4023 7.85907 30.8339 8.02338 30.4155 8.35655C29.9925 8.68515 29.7833 9.11417 29.7833 9.63902C29.7833 10.2004 30.0107 10.6568 30.4655 11.0128C30.9703 11.3688 31.8662 11.743 33.1532 12.131L34.3675 12.5371C34.5858 12.6056 34.9678 12.7471 35.509 12.9707C36.0138 13.1579 36.3867 13.3358 36.6232 13.5047C37.4509 14.0113 38.0102 14.5407 38.2967 15.0793C38.7379 15.7913 38.9562 16.631 38.9562 17.5986C38.9562 19.2416 38.3559 20.5469 37.1552 21.5145C35.9546 22.4821 34.4084 22.9658 32.5165 22.9658H32.5256Z" fill="#0C0C0C"/>
<path d="M47.8471 9.53857C49.5525 9.53857 51.0078 10.1912 52.2038 11.4965C53.4181 12.8018 54.0275 14.3855 54.0275 16.2522C54.0275 18.1189 53.4181 19.7436 52.2038 21.0352C51.0214 22.3223 49.5707 22.9658 47.8471 22.9658C46.1235 22.9658 44.7046 22.3451 43.7404 21.1083V27.6941H40.4706V9.89456H43.7404V11.3961C44.7046 10.1593 46.0734 9.53857 47.8471 9.53857ZM44.7318 18.8445C45.3913 19.5063 46.2281 19.8349 47.2422 19.8349C48.2564 19.8349 49.0931 19.5063 49.7526 18.8445C50.4256 18.1645 50.7667 17.3019 50.7667 16.2522C50.7667 15.2025 50.4302 14.3444 49.7526 13.6827C49.0931 13.0026 48.2564 12.6649 47.2422 12.6649C46.2281 12.6649 45.3913 13.0026 44.7318 13.6827C44.0724 14.3444 43.745 15.1979 43.745 16.2522C43.745 17.3065 44.0724 18.1691 44.7318 18.8445Z" fill="#0C0C0C"/>
<path d="M57.0472 8.36571C56.506 8.36571 56.0376 8.16489 55.6419 7.76782C55.2463 7.37076 55.0462 6.90067 55.0462 6.35756C55.0462 5.81444 55.2463 5.33979 55.6419 4.93359C56.0376 4.5274 56.506 4.32202 57.0472 4.32202C57.5884 4.32202 58.0841 4.5274 58.4797 4.93359C58.8754 5.33979 59.0755 5.81444 59.0755 6.35756C59.0755 6.90067 58.8754 7.37076 58.4797 7.76782C58.0841 8.16489 57.6066 8.36571 57.0472 8.36571ZM58.6935 22.6053H55.4236V9.89007H58.6935V22.6053Z" fill="#0C0C0C"/>
<path d="M67.8845 9.53857C69.2852 9.53857 70.4267 10.0041 71.3044 10.9352C72.2185 11.8845 72.6733 13.1715 72.6733 14.8008V22.6098H69.4035V15.2116C69.4035 14.381 69.1806 13.7374 68.7304 13.281C68.2802 12.8246 67.6708 12.5964 66.8931 12.5964C66.0336 12.5964 65.3514 12.8657 64.8512 13.3997C64.3509 13.9337 64.1053 14.7187 64.1053 15.7501V22.6144H60.8355V9.89913H64.1053V11.3231C64.883 10.1365 66.1427 9.54314 67.88 9.54314L67.8845 9.53857Z" fill="#0C0C0C"/>
<path d="M86.8669 17.5987H77.312C77.735 19.1916 78.9265 19.9903 80.8866 19.9903C82.1372 19.9903 83.0832 19.5658 83.7244 18.7169L86.3621 20.2413C85.1115 22.0577 83.2696 22.9614 80.8366 22.9614C78.74 22.9614 77.0619 22.327 75.7931 21.0537C74.5243 19.7803 73.8921 18.1784 73.8921 16.2478C73.8921 14.3172 74.5152 12.7563 75.7658 11.4647C76.9983 10.1777 78.6036 9.53418 80.5819 9.53418C82.5602 9.53418 83.9836 10.1777 85.1706 11.4647C86.3848 12.7518 86.9942 14.3492 86.9942 16.2478C86.9942 16.6038 86.9533 17.0511 86.8669 17.5942V17.5987ZM77.262 15.0566H83.7244C83.5379 14.2259 83.1605 13.5916 82.5965 13.1488C82.0281 12.7061 81.3596 12.4871 80.5819 12.4871C79.7042 12.4871 78.9765 12.7107 78.4035 13.1625C77.8305 13.6098 77.4485 14.2442 77.262 15.0566Z" fill="#0C0C0C"/>
<path d="M21.4473 3.89764C21.4473 1.74344 19.7055 0 17.5635 0H14.6256C12.47 0 10.7282 1.75257 10.7282 3.91133C10.7282 5.46764 9.46845 6.73187 7.91766 6.73187H3.88834C1.73725 6.73643 0 8.47987 0 10.6341C0 12.7883 1.73725 14.5317 3.88379 14.5317H7.91311C9.4639 14.5317 10.7236 15.7959 10.7236 17.3522V17.3842C10.7236 18.9405 9.4639 20.2047 7.91311 20.2047H3.88379C1.73725 20.2047 0 21.9482 0 24.1024C0 26.2566 1.73725 28 3.88379 28H6.82165C8.97729 28 10.7191 26.2474 10.7191 24.0887C10.7191 22.5324 11.9788 21.2681 13.5296 21.2681H17.5589C19.7055 21.2681 21.4427 19.5247 21.4427 17.3705C21.4427 15.2163 19.7055 13.4729 17.5589 13.4729H13.5296C11.9788 13.4729 10.7191 12.2086 10.7191 10.6523V10.6204C10.7191 9.06406 11.9788 7.79984 13.5296 7.79984H17.5589C19.7055 7.79984 21.4427 6.0564 21.4427 3.9022L21.4473 3.89764Z" fill="#0C0C0C"/>
</svg>
