<svg width="14" height="12" viewBox="0 0 14 12" fill="none" xmlns="http://www.w3.org/2000/svg">
<path d="M14 1.78794C13.484 2.01594 12.932 2.17194 12.352 2.23994C12.944 1.88394 13.4 1.31994 13.616 0.651941C13.06 0.979941 12.448 1.21994 11.792 1.34794C11.268 0.787941 10.52 0.439941 9.696 0.439941C8.108 0.439941 6.824 1.72794 6.824 3.31194C6.824 3.53594 6.848 3.75594 6.9 3.96794C4.512 3.84794 2.396 2.70394 0.979996 0.967941C0.731996 1.39194 0.591996 1.88394 0.591996 2.41194C0.591996 3.40794 1.1 4.28794 1.868 4.80394C1.396 4.78794 0.955996 4.65994 0.567996 4.44394C0.567996 4.45594 0.567996 4.46794 0.567996 4.47994C0.567996 5.87194 1.56 7.03194 2.872 7.29594C2.632 7.35994 2.376 7.39594 2.116 7.39594C1.932 7.39594 1.752 7.37594 1.576 7.34394C1.94 8.48394 3.004 9.31594 4.26 9.33994C3.276 10.1119 2.04 10.5679 0.691996 10.5679C0.459996 10.5679 0.231996 10.5559 0.00799561 10.5279C1.28 11.3439 2.788 11.8199 4.412 11.8199C9.696 11.8199 12.584 7.44394 12.584 3.64794C12.584 3.52394 12.58 3.39994 12.576 3.27594C13.128 2.86794 13.616 2.36394 14 1.78794Z" fill="white"/>
</svg>
