<svg width="465" height="95" viewBox="0 0 465 95" fill="none" xmlns="http://www.w3.org/2000/svg">
<path opacity="0.2" d="M1 10.4012C27.4235 31.761 48.2943 40.8028 82.1933 39.2846C112.806 37.9136 146.106 23.2634 174.578 12.5877C209.829 -0.629819 279.025 -10.96 299.508 31.1144C315.413 63.7841 291.574 102.851 254.058 92.2183C239.595 88.1194 232.121 68.6629 238.528 55.1647C245.447 40.5856 266.132 33.5573 280.437 30.1938C318.857 21.1607 344.452 57.4258 379.217 63.7952C411.696 69.7459 435.815 55.0849 460.41 35.2571C462.517 33.5587 461.438 44.8588 461.438 47.685C461.438 58.0457 463.494 53.4474 463.494 45.6137C463.494 40.5755 466.127 29.8637 459.382 32.7254C454.516 34.79 444.288 35.2571 438.827 35.2571" stroke="#1C1C1C" stroke-width="2" stroke-linecap="round"/>
</svg>
